Sintony-Bold.otf.ufo
<glyph name="exclam" format="1">
  <advance width="298"/>
  <unicode hex="0021"/>
  <outline>
    <contour>
      <point x="149" y="-8" type="curve" name="hr00"/>
      <point x="200" y="-8" smooth="yes"/>
      <point x="222" y="16" smooth="yes"/>
      <point x="222" y="70" type="curve" smooth="yes"/>
      <point x="222" y="126" smooth="yes"/>
      <point x="201" y="149" smooth="yes"/>
      <point x="149" y="149" type="curve" smooth="yes"/>
      <point x="99" y="149" smooth="yes"/>
      <point x="78" y="126" smooth="yes"/>
      <point x="78" y="70" type="curve" smooth="yes"/>
      <point x="78" y="16" smooth="yes"/>
      <point x="100" y="-8" smooth="yes"/>
    </contour>
    <contour>
      <point x="109" y="209" type="line"/>
      <point x="189" y="209" type="line"/>
      <point x="223" y="548" type="line"/>
      <point x="223" y="730" type="line"/>
      <point x="75" y="730" type="line"/>
      <point x="75" y="548" type="line"/>
    </contour>
  </outline>
</glyph>
<glyph name="quotedbl" format="1">
  <advance width="416"/>
  <unicode hex="0022"/>
  <outline>
    <contour>
      <point x="240" y="730" type="line" name="hr00"/>
      <point x="240" y="664" type="line"/>
      <point x="266" y="467" type="line"/>
      <point x="342" y="467" type="line"/>
      <point x="368" y="664" type="line"/>
      <point x="368" y="730" type="line"/>
    </contour>
    <contour>
      <point x="48" y="730" type="line"/>
      <point x="48" y="664" type="line"/>
      <point x="74" y="467" type="line"/>
      <point x="150" y="467" type="line"/>
      <point x="176" y="664" type="line"/>
      <point x="176" y="730" type="line"/>
    </contour>
  </outline>
</glyph>
<glyph name="numbersign" format="1">
  <advance width="814"/>
  <unicode hex="0023"/>
  <outline>
    <contour>
      <point x="415" y="-76" type="line" name="hr00"/>
      <point x="550" y="-76" type="line"/>
      <point x="592" y="156" type="line"/>
      <point x="696" y="156" type="line"/>
      <point x="715" y="261" type="line"/>
      <point x="611" y="261" type="line"/>
      <point x="648" y="468" type="line"/>
      <point x="751" y="468" type="line"/>
      <point x="770" y="573" type="line"/>
      <point x="667" y="573" type="line"/>
      <point x="710" y="805" type="line"/>
      <point x="575" y="805" type="line"/>
      <point x="532" y="573" type="line"/>
      <point x="357" y="573" type="line"/>
      <point x="400" y="805" type="line"/>
      <point x="265" y="805" type="line"/>
      <point x="222" y="573" type="line"/>
      <point x="119" y="573" type="line"/>
      <point x="100" y="468" type="line"/>
      <point x="203" y="468" type="line"/>
      <point x="166" y="261" type="line"/>
      <point x="63" y="261" type="line"/>
      <point x="44" y="156" type="line"/>
      <point x="147" y="156" type="line"/>
      <point x="105" y="-76" type="line"/>
      <point x="240" y="-76" type="line"/>
      <point x="282" y="156" type="line"/>
      <point x="457" y="156" type="line"/>
    </contour>
    <contour>
      <point x="338" y="468" type="line"/>
      <point x="513" y="468" type="line"/>
      <point x="476" y="261" type="line"/>
      <point x="301" y="261" type="line"/>
    </contour>
  </outline>
</glyph>
<glyph name="quotesingle" format="1">
  <advance width="224"/>
  <unicode hex="0027"/>
  <outline>
    <contour>
      <point x="48" y="730" type="line" name="hr00"/>
      <point x="48" y="664" type="line"/>
      <point x="74" y="467" type="line"/>
      <point x="150" y="467" type="line"/>
      <point x="176" y="664" type="line"/>
      <point x="176" y="730" type="line"/>
    </contour>
  </outline>
</glyph>
<glyph name="parenright" format="1">
  <advance width="318"/>
  <unicode hex="0029"/>
  <outline>
    <contour>
      <point x="9" y="-66" type="line" name="hr00"/>
      <point x="199" y="-66" smooth="yes"/>
      <point x="281" y="55" smooth="yes"/>
      <point x="281" y="334" type="curve" smooth="yes"/>
      <point x="281" y="615"/>
      <point x="199" y="735"/>
      <point x="9" y="735" type="curve"/>
      <point x="9" y="641" type="line"/>
      <point x="102" y="641" smooth="yes"/>
      <point x="140" y="551" smooth="yes"/>
      <point x="140" y="334" type="curve" smooth="yes"/>
      <point x="140" y="118"/>
      <point x="101" y="28"/>
      <point x="9" y="28" type="curve"/>
    </contour>
  </outline>
</glyph>
<glyph name="asterisk" format="1">
  <advance width="557"/>
  <unicode hex="002A"/>
  <outline>
    <contour>
      <point x="214" y="779" type="line" name="hr00"/>
      <point x="214" y="684" type="line"/>
      <point x="258" y="577" type="line"/>
      <point x="298" y="577" type="line"/>
      <point x="342" y="684" type="line"/>
      <point x="342" y="779" type="line"/>
    </contour>
    <contour>
      <point x="24" y="554" type="line"/>
      <point x="115" y="523" type="line"/>
      <point x="228" y="526" type="line"/>
      <point x="241" y="564" type="line"/>
      <point x="151" y="631" type="line"/>
      <point x="60" y="661" type="line"/>
    </contour>
    <contour>
      <point x="181" y="293" type="line"/>
      <point x="239" y="373" type="line"/>
      <point x="267" y="481" type="line"/>
      <point x="235" y="506" type="line"/>
      <point x="140" y="447" type="line"/>
      <point x="84" y="366" type="line"/>
    </contour>
    <contour>
      <point x="473" y="366" type="line"/>
      <point x="417" y="447" type="line"/>
      <point x="322" y="505" type="line"/>
      <point x="289" y="481" type="line"/>
      <point x="318" y="373" type="line"/>
      <point x="376" y="293" type="line"/>
    </contour>
    <contour>
      <point x="497" y="661" type="line"/>
      <point x="405" y="631" type="line"/>
      <point x="317" y="564" type="line"/>
      <point x="329" y="525" type="line"/>
      <point x="442" y="523" type="line"/>
      <point x="533" y="554" type="line"/>
    </contour>
  </outline>
</glyph>
<glyph name="plus" format="1">
  <advance width="580"/>
  <unicode hex="002B"/>
  <outline>
    <contour>
      <point x="86" y="272" type="line" name="hr00"/>
      <point x="244" y="272" type="line"/>
      <point x="244" y="114" type="line"/>
      <point x="336" y="114" type="line"/>
      <point x="336" y="272" type="line"/>
      <point x="494" y="272" type="line"/>
      <point x="494" y="364" type="line"/>
      <point x="336" y="364" type="line"/>
      <point x="336" y="522" type="line"/>
      <point x="244" y="522" type="line"/>
      <point x="244" y="364" type="line"/>
      <point x="86" y="364" type="line"/>
    </contour>
  </outline>
</glyph>
<glyph name="hyphen" format="1">
  <advance width="476"/>
  <unicode hex="002D"/>
  <outline>
    <contour>
      <point x="62" y="272" type="line" name="hr00"/>
      <point x="414" y="272" type="line"/>
      <point x="414" y="364" type="line"/>
      <point x="62" y="364" type="line"/>
    </contour>
  </outline>
</glyph>
<glyph name="zero" format="1">
  <advance width="646"/>
  <unicode hex="0030"/>
  <outline>
    <contour>
      <point x="323" y="-14" type="curve" smooth="yes" name="hr00"/>
      <point x="510" y="-14" smooth="yes"/>
      <point x="596" y="105" smooth="yes"/>
      <point x="596" y="365" type="curve" smooth="yes"/>
      <point x="596" y="625" smooth="yes"/>
      <point x="509" y="745" smooth="yes"/>
      <point x="323" y="745" type="curve" smooth="yes"/>
      <point x="137" y="745" smooth="yes"/>
      <point x="51" y="624" smooth="yes"/>
      <point x="51" y="365" type="curve" smooth="yes"/>
      <point x="51" y="106" smooth="yes"/>
      <point x="137" y="-14" smooth="yes"/>
    </contour>
    <contour>
      <point x="323" y="91" type="curve" smooth="yes"/>
      <point x="224" y="91" smooth="yes"/>
      <point x="186" y="167" smooth="yes"/>
      <point x="186" y="365" type="curve" smooth="yes"/>
      <point x="186" y="562" smooth="yes"/>
      <point x="224" y="639" smooth="yes"/>
      <point x="323" y="639" type="curve" smooth="yes"/>
      <point x="422" y="639" smooth="yes"/>
      <point x="461" y="562" smooth="yes"/>
      <point x="461" y="365" type="curve" smooth="yes"/>
      <point x="461" y="167" smooth="yes"/>
      <point x="423" y="91" smooth="yes"/>
    </contour>
  </outline>
</glyph>
<glyph name="one" format="1">
  <advance width="646"/>
  <unicode hex="0031"/>
  <outline>
    <contour>
      <point x="131" y="0" type="line" name="hr00"/>
      <point x="557" y="0" type="line"/>
      <point x="557" y="106" type="line"/>
      <point x="412" y="106" type="line"/>
      <point x="412" y="730" type="line"/>
      <point x="305" y="730" type="line"/>
      <point x="267" y="703"/>
      <point x="202" y="683"/>
      <point x="129" y="675" type="curve"/>
      <point x="129" y="596" type="line"/>
      <point x="276" y="596" type="line"/>
      <point x="276" y="106" type="line"/>
      <point x="131" y="106" type="line"/>
    </contour>
  </outline>
</glyph>
<glyph name="two" format="1">
  <advance width="646"/>
  <unicode hex="0032"/>
  <outline>
    <contour>
      <point x="68" y="0" type="line" name="hr00"/>
      <point x="571" y="0" type="line"/>
      <point x="571" y="106" type="line"/>
      <point x="252" y="106" type="line"/>
      <point x="452" y="323" type="line" smooth="yes"/>
      <point x="529" y="407" smooth="yes"/>
      <point x="560" y="469" smooth="yes"/>
      <point x="560" y="539" type="curve" smooth="yes"/>
      <point x="560" y="668" smooth="yes"/>
      <point x="473" y="744" smooth="yes"/>
      <point x="324" y="744" type="curve" smooth="yes"/>
      <point x="171" y="744"/>
      <point x="88" y="677"/>
      <point x="77" y="543" type="curve"/>
      <point x="194" y="526" type="line"/>
      <point x="198" y="602" smooth="yes"/>
      <point x="237" y="638" smooth="yes"/>
      <point x="315" y="638" type="curve" smooth="yes"/>
      <point x="385" y="638" smooth="yes"/>
      <point x="426" y="602" smooth="yes"/>
      <point x="426" y="540" type="curve" smooth="yes"/>
      <point x="426" y="496" smooth="yes"/>
      <point x="405" y="461" smooth="yes"/>
      <point x="334" y="385" type="curve" smooth="yes"/>
      <point x="68" y="96" type="line"/>
    </contour>
  </outline>
</glyph>
<glyph name="four" format="1">
  <advance width="646"/>
  <unicode hex="0034"/>
  <outline>
    <contour>
      <point x="504" y="0" type="line" name="hr00"/>
      <point x="504" y="154" type="line"/>
      <point x="581" y="154" type="line"/>
      <point x="581" y="260" type="line"/>
      <point x="504" y="260" type="line"/>
      <point x="504" y="730" type="line"/>
      <point x="305" y="730" type="line"/>
      <point x="20" y="252" type="line"/>
      <point x="20" y="154" type="line"/>
      <point x="373" y="154" type="line"/>
      <point x="373" y="0" type="line"/>
    </contour>
    <contour>
      <point x="172" y="260" type="line"/>
      <point x="373" y="605" type="line"/>
      <point x="373" y="260" type="line"/>
    </contour>
  </outline>
</glyph>
<glyph name="six" format="1">
  <advance width="646"/>
  <unicode hex="0036"/>
  <outline>
    <contour>
      <point x="336" y="-14" type="curve"/>
      <point x="506" y="-14" smooth="yes"/>
      <point x="594" y="66" smooth="yes"/>
      <point x="594" y="220" type="curve" smooth="yes"/>
      <point x="594" y="362" smooth="yes"/>
      <point x="513" y="434" smooth="yes"/>
      <point x="353" y="434" type="curve" smooth="yes"/>
      <point x="303" y="434"/>
      <point x="251" y="428"/>
      <point x="195" y="415" type="curve"/>
      <point x="201" y="574" smooth="yes"/>
      <point x="240" y="638" smooth="yes"/>
      <point x="334" y="638" type="curve" smooth="yes" name="hr01"/>
      <point x="416" y="638"/>
      <point x="457" y="600"/>
      <point x="461" y="521" type="curve"/>
      <point x="578" y="533" type="line"/>
      <point x="569" y="676" smooth="yes"/>
      <point x="489" y="744" smooth="yes"/>
      <point x="334" y="744" type="curve" smooth="yes" name="hr02"/>
      <point x="144" y="744" smooth="yes"/>
      <point x="63" y="621" smooth="yes"/>
      <point x="63" y="334" type="curve" smooth="yes"/>
      <point x="63" y="100" smooth="yes"/>
      <point x="152" y="-14" smooth="yes"/>
    </contour>
    <contour>
      <point x="323" y="334" type="curve" smooth="yes"/>
      <point x="413" y="334" smooth="yes"/>
      <point x="462" y="294" smooth="yes"/>
      <point x="462" y="220" type="curve" smooth="yes"/>
      <point x="462" y="133" smooth="yes"/>
      <point x="420" y="91" smooth="yes"/>
      <point x="334" y="91" type="curve" smooth="yes"/>
      <point x="239" y="91"/>
      <point x="201" y="153"/>
      <point x="195" y="317" type="curve"/>
      <point x="239" y="329" smooth="yes"/>
      <point x="277" y="334" smooth="yes"/>
    </contour>
  </outline>
</glyph>
<glyph name="seven" format="1">
  <advance width="646"/>
  <unicode hex="0037"/>
  <outline>
    <contour>
      <point x="294" y="0" type="line" name="hr00"/>
      <point x="570" y="638" type="line"/>
      <point x="570" y="730" type="line"/>
      <point x="68" y="730" type="line"/>
      <point x="68" y="624" type="line"/>
      <point x="423" y="624" type="line"/>
      <point x="149" y="0" type="line"/>
    </contour>
  </outline>
</glyph>
<glyph name="eight" format="1">
  <advance width="646"/>
  <unicode hex="0038"/>
  <outline>
    <contour>
      <point x="324" y="-14" type="curve" name="hr00"/>
      <point x="482" y="-14" smooth="yes"/>
      <point x="589" y="68" smooth="yes"/>
      <point x="589" y="190" type="curve" smooth="yes"/>
      <point x="589" y="275"/>
      <point x="554" y="334"/>
      <point x="483" y="370" type="curve"/>
      <point x="547" y="405" smooth="yes"/>
      <point x="579" y="459" smooth="yes"/>
      <point x="579" y="533" type="curve" smooth="yes"/>
      <point x="579" y="663" smooth="yes"/>
      <point x="481" y="744" smooth="yes"/>
      <point x="324" y="744" type="curve" smooth="yes"/>
      <point x="167" y="744" smooth="yes"/>
      <point x="68" y="663" smooth="yes"/>
      <point x="68" y="533" type="curve" smooth="yes"/>
      <point x="68" y="451"/>
      <point x="99" y="396"/>
      <point x="165" y="363" type="curve"/>
      <point x="93" y="326" smooth="yes"/>
      <point x="58" y="269" smooth="yes"/>
      <point x="58" y="190" type="curve" smooth="yes"/>
      <point x="58" y="68" smooth="yes"/>
      <point x="165" y="-14" smooth="yes"/>
    </contour>
    <contour>
      <point x="357" y="405" type="curve"/>
      <point x="301" y="414" type="line" smooth="yes"/>
      <point x="232" y="425" smooth="yes"/>
      <point x="203" y="457" smooth="yes"/>
      <point x="203" y="525" type="curve" smooth="yes"/>
      <point x="203" y="600" smooth="yes"/>
      <point x="247" y="642" smooth="yes"/>
      <point x="324" y="642" type="curve" smooth="yes"/>
      <point x="400" y="642" smooth="yes"/>
      <point x="444" y="599" smooth="yes"/>
      <point x="444" y="525" type="curve" smooth="yes"/>
      <point x="444" y="462"/>
      <point x="412" y="418"/>
    </contour>
    <contour>
      <point x="323" y="88" type="curve"/>
      <point x="243" y="88" smooth="yes"/>
      <point x="194" y="128" smooth="yes"/>
      <point x="194" y="193" type="curve" smooth="yes"/>
      <point x="194" y="266"/>
      <point x="227" y="312"/>
      <point x="288" y="326" type="curve"/>
      <point x="356" y="316" type="line" smooth="yes"/>
      <point x="424" y="305" smooth="yes"/>
      <point x="454" y="267" smooth="yes"/>
      <point x="454" y="193" type="curve" smooth="yes"/>
      <point x="454" y="128" smooth="yes"/>
      <point x="404" y="88" smooth="yes"/>
    </contour>
  </outline>
</glyph>
<glyph name="nine" format="1">
  <advance width="646"/>
  <unicode hex="0039"/>
  <outline>
    <contour>
      <point x="309" y="-14" type="curve"/>
      <point x="505" y="-14" smooth="yes"/>
      <point x="583" y="100" smooth="yes"/>
      <point x="583" y="390" type="curve" smooth="yes"/>
      <point x="583" y="631" smooth="yes"/>
      <point x="500" y="744" smooth="yes"/>
      <point x="324" y="744" type="curve" smooth="yes"/>
      <point x="159" y="744" smooth="yes"/>
      <point x="51" y="649" smooth="yes"/>
      <point x="51" y="504" type="curve" smooth="yes"/>
      <point x="51" y="367" smooth="yes"/>
      <point x="137" y="291" smooth="yes"/>
      <point x="293" y="291" type="curve" smooth="yes" name="hr01"/>
      <point x="348" y="291"/>
      <point x="396" y="297"/>
      <point x="447" y="310" type="curve"/>
      <point x="440" y="148" smooth="yes"/>
      <point x="404" y="91" smooth="yes"/>
      <point x="308" y="91" type="curve" smooth="yes"/>
      <point x="226" y="91"/>
      <point x="183" y="129"/>
      <point x="179" y="207" type="curve" name="hr02"/>
      <point x="63" y="194" type="line"/>
      <point x="70" y="57" smooth="yes"/>
      <point x="153" y="-14" smooth="yes"/>
    </contour>
    <contour>
      <point x="326" y="393" type="curve" smooth="yes"/>
      <point x="240" y="393" smooth="yes"/>
      <point x="187" y="438" smooth="yes"/>
      <point x="187" y="510" type="curve" smooth="yes"/>
      <point x="187" y="590" smooth="yes"/>
      <point x="237" y="638" smooth="yes"/>
      <point x="322" y="638" type="curve" smooth="yes"/>
      <point x="408" y="638"/>
      <point x="443" y="574"/>
      <point x="447" y="408" type="curve"/>
      <point x="406" y="397" smooth="yes"/>
      <point x="370" y="393" smooth="yes"/>
    </contour>
  </outline>
</glyph>
<glyph name="less" format="1">
  <advance width="580"/>
  <unicode hex="003C"/>
  <outline>
    <contour>
      <point x="89" y="259" type="line" name="hr00"/>
      <point x="491" y="87" type="line"/>
      <point x="491" y="189" type="line"/>
      <point x="173" y="317" type="line"/>
      <point x="491" y="445" type="line"/>
      <point x="491" y="547" type="line"/>
      <point x="89" y="375" type="line"/>
    </contour>
  </outline>
</glyph>
<glyph name="question" format="1">
  <advance width="468"/>
  <unicode hex="003F"/>
  <outline>
    <contour>
      <point x="166" y="209" type="line" name="hr00"/>
      <point x="250" y="209" type="line"/>
      <point x="261" y="319" type="line"/>
      <point x="387" y="356" smooth="yes"/>
      <point x="460" y="435" smooth="yes"/>
      <point x="460" y="535" type="curve" smooth="yes"/>
      <point x="460" y="659" smooth="yes"/>
      <point x="367" y="744" smooth="yes"/>
      <point x="231" y="744" type="curve" smooth="yes"/>
      <point x="107" y="744"/>
      <point x="31" y="682"/>
      <point x="20" y="571" type="curve"/>
      <point x="135" y="555" type="line"/>
      <point x="140" y="614" smooth="yes"/>
      <point x="172" y="643" smooth="yes"/>
      <point x="231" y="643" type="curve" smooth="yes"/>
      <point x="287" y="643" smooth="yes"/>
      <point x="326" y="597" smooth="yes"/>
      <point x="326" y="532" type="curve" smooth="yes"/>
      <point x="326" y="450"/>
      <point x="276" y="401"/>
      <point x="157" y="365" type="curve"/>
    </contour>
    <contour>
      <point x="209" y="-8" type="curve" smooth="yes"/>
      <point x="260" y="-8" smooth="yes"/>
      <point x="282" y="15" smooth="yes"/>
      <point x="282" y="70" type="curve" smooth="yes"/>
      <point x="282" y="126" smooth="yes"/>
      <point x="261" y="149" smooth="yes"/>
      <point x="209" y="149" type="curve" smooth="yes"/>
      <point x="159" y="149" smooth="yes"/>
      <point x="138" y="126" smooth="yes"/>
      <point x="138" y="70" type="curve" smooth="yes"/>
      <point x="138" y="16" smooth="yes"/>
      <point x="160" y="-8" smooth="yes"/>
    </contour>
  </outline>
</glyph>
<glyph name="D" format="1">
  <advance width="698"/>
  <unicode hex="0044"/>
  <outline>
    <contour>
      <point x="94" y="0" type="line" name="hr00"/>
      <point x="337" y="0" type="line" smooth="yes"/>
      <point x="542" y="0" smooth="yes"/>
      <point x="632" y="111" smooth="yes"/>
      <point x="632" y="365" type="curve" smooth="yes"/>
      <point x="632" y="618" smooth="yes"/>
      <point x="542" y="730" smooth="yes"/>
      <point x="337" y="730" type="curve" smooth="yes"/>
      <point x="94" y="730" type="line"/>
    </contour>
    <contour>
      <point x="230" y="105" type="line"/>
      <point x="230" y="625" type="line"/>
      <point x="319" y="625" type="line" smooth="yes"/>
      <point x="442" y="625" smooth="yes"/>
      <point x="496" y="546" smooth="yes"/>
      <point x="496" y="365" type="curve" smooth="yes"/>
      <point x="496" y="184" smooth="yes"/>
      <point x="442" y="105" smooth="yes"/>
      <point x="319" y="105" type="curve" smooth="yes"/>
    </contour>
  </outline>
</glyph>
<glyph name="J" format="1">
  <advance width="485"/>
  <unicode hex="004A"/>
  <outline>
    <contour>
      <point x="194" y="-14" type="curve" name="hr00"/>
      <point x="347" y="-14" smooth="yes"/>
      <point x="406" y="41" smooth="yes"/>
      <point x="406" y="183" type="curve" smooth="yes"/>
      <point x="406" y="730" type="line"/>
      <point x="270" y="730" type="line"/>
      <point x="270" y="183" type="line" smooth="yes"/>
      <point x="270" y="116" smooth="yes"/>
      <point x="253" y="96" smooth="yes"/>
      <point x="196" y="96" type="curve" smooth="yes"/>
      <point x="140" y="96"/>
      <point x="122" y="123"/>
      <point x="122" y="207" type="curve"/>
      <point x="4" y="207" type="line"/>
      <point x="4" y="38" smooth="yes"/>
      <point x="48" y="-14" smooth="yes"/>
    </contour>
  </outline>
</glyph>
<glyph name="K" format="1">
  <advance width="621"/>
  <unicode hex="004B"/>
  <outline>
    <contour>
      <point x="625" y="0" type="line" name="hr00"/>
      <point x="386" y="370" type="line"/>
      <point x="606" y="730" type="line"/>
      <point x="466" y="730" type="line"/>
      <point x="281" y="422" type="line"/>
      <point x="230" y="422" type="line"/>
      <point x="230" y="730" type="line"/>
      <point x="94" y="730" type="line"/>
      <point x="94" y="0" type="line"/>
      <point x="230" y="0" type="line"/>
      <point x="230" y="319" type="line"/>
      <point x="275" y="319" type="line"/>
      <point x="480" y="0" type="line"/>
    </contour>
  </outline>
</glyph>
<glyph name="L" format="1">
  <advance width="483"/>
  <unicode hex="004C"/>
  <outline>
    <contour>
      <point x="94" y="0" type="line" name="hr00"/>
      <point x="479" y="0" type="line"/>
      <point x="479" y="105" type="line"/>
      <point x="230" y="105" type="line"/>
      <point x="230" y="730" type="line"/>
      <point x="94" y="730" type="line"/>
    </contour>
  </outline>
</glyph>
<glyph name="R" format="1">
  <advance width="660"/>
  <unicode hex="0052"/>
  <outline>
    <contour>
      <point x="94" y="0" type="line" name="hr00"/>
      <point x="230" y="0" type="line"/>
      <point x="230" y="289" type="line"/>
      <point x="290" y="289" type="line" smooth="yes"/>
      <point x="336" y="289" smooth="yes"/>
      <point x="353" y="276" smooth="yes"/>
      <point x="370" y="237" type="curve" smooth="yes"/>
      <point x="474" y="0" type="line"/>
      <point x="619" y="0" type="line"/>
      <point x="508" y="249" type="line" smooth="yes"/>
      <point x="496" y="277"/>
      <point x="482" y="295"/>
      <point x="470" y="309" type="curve"/>
      <point x="546" y="341" smooth="yes"/>
      <point x="588" y="411" smooth="yes"/>
      <point x="588" y="509" type="curve" smooth="yes"/>
      <point x="588" y="650" smooth="yes"/>
      <point x="502" y="730" smooth="yes"/>
      <point x="349" y="730" type="curve" smooth="yes"/>
      <point x="94" y="730" type="line"/>
    </contour>
    <contour>
      <point x="230" y="394" type="line"/>
      <point x="230" y="625" type="line"/>
      <point x="333" y="625" type="line" smooth="yes"/>
      <point x="407" y="625" smooth="yes"/>
      <point x="452" y="581" smooth="yes"/>
      <point x="452" y="509" type="curve" smooth="yes"/>
      <point x="452" y="438" smooth="yes"/>
      <point x="407" y="394" smooth="yes"/>
      <point x="333" y="394" type="curve" smooth="yes"/>
    </contour>
  </outline>
</glyph>
<glyph name="S" format="1">
  <advance width="603"/>
  <unicode hex="0053"/>
  <outline>
    <contour>
      <point x="289" y="-14" type="curve" name="hr00"/>
      <point x="464" y="-14" smooth="yes"/>
      <point x="559" y="61" smooth="yes"/>
      <point x="559" y="200" type="curve" smooth="yes"/>
      <point x="559" y="322" smooth="yes"/>
      <point x="508" y="379" smooth="yes"/>
      <point x="369" y="415" type="curve" smooth="yes"/>
      <point x="306" y="432" type="line" smooth="yes"/>
      <point x="221" y="454" smooth="yes"/>
      <point x="195" y="479" smooth="yes"/>
      <point x="195" y="536" type="curve" smooth="yes"/>
      <point x="195" y="602" smooth="yes"/>
      <point x="238" y="638" smooth="yes"/>
      <point x="318" y="638" type="curve" smooth="yes"/>
      <point x="393" y="638"/>
      <point x="437" y="595"/>
      <point x="446" y="514" type="curve"/>
      <point x="554" y="531" type="line"/>
      <point x="536" y="677" smooth="yes"/>
      <point x="461" y="744" smooth="yes"/>
      <point x="319" y="744" type="curve" smooth="yes"/>
      <point x="149" y="744" smooth="yes"/>
      <point x="59" y="670" smooth="yes"/>
      <point x="59" y="530" type="curve" smooth="yes"/>
      <point x="59" y="405" smooth="yes"/>
      <point x="110" y="345" smooth="yes"/>
      <point x="245" y="312" type="curve" smooth="yes"/>
      <point x="302" y="298" type="line" smooth="yes"/>
      <point x="396" y="274" smooth="yes"/>
      <point x="423" y="251" smooth="yes"/>
      <point x="423" y="193" type="curve" smooth="yes"/>
      <point x="423" y="127" smooth="yes"/>
      <point x="376" y="92" smooth="yes"/>
      <point x="290" y="92" type="curve" smooth="yes"/>
      <point x="209" y="92"/>
      <point x="161" y="135"/>
      <point x="153" y="216" type="curve"/>
      <point x="44" y="199" type="line"/>
      <point x="62" y="54" smooth="yes"/>
      <point x="140" y="-14" smooth="yes"/>
    </contour>
  </outline>
</glyph>
<glyph name="T" format="1">
  <advance width="515"/>
  <unicode hex="0054"/>
  <outline>
    <contour>
      <point x="-2" y="627" type="line" name="hr00"/>
      <point x="190" y="627" type="line"/>
      <point x="190" y="0" type="line"/>
      <point x="326" y="0" type="line"/>
      <point x="326" y="627" type="line"/>
      <point x="517" y="627" type="line"/>
      <point x="517" y="730" type="line"/>
      <point x="-2" y="730" type="line"/>
    </contour>
  </outline>
</glyph>
<glyph name="W" format="1">
  <advance width="907"/>
  <unicode hex="0057"/>
  <outline>
    <contour>
      <point x="360" y="0" type="line" name="hr00"/>
      <point x="453" y="455" type="line"/>
      <point x="547" y="0" type="line"/>
      <point x="744" y="0" type="line"/>
      <point x="885" y="730" type="line"/>
      <point x="749" y="730" type="line"/>
      <point x="640" y="135" type="line"/>
      <point x="521" y="730" type="line"/>
      <point x="386" y="730" type="line"/>
      <point x="266" y="135" type="line"/>
      <point x="158" y="730" type="line"/>
      <point x="22" y="730" type="line"/>
      <point x="163" y="0" type="line"/>
    </contour>
  </outline>
</glyph>
<glyph name="X" format="1">
  <advance width="622"/>
  <unicode hex="0058"/>
  <outline>
    <contour>
      <point x="5" y="730" type="line" name="hr00"/>
      <point x="235" y="376" type="line"/>
      <point x="7" y="0" type="line"/>
      <point x="149" y="0" type="line"/>
      <point x="306" y="266" type="line"/>
      <point x="479" y="0" type="line"/>
      <point x="634" y="0" type="line"/>
      <point x="396" y="366" type="line"/>
      <point x="619" y="730" type="line"/>
      <point x="476" y="730" type="line"/>
      <point x="324" y="477" type="line"/>
      <point x="160" y="730" type="line"/>
    </contour>
  </outline>
</glyph>
<glyph name="Y" format="1">
  <advance width="574"/>
  <unicode hex="0059"/>
  <outline>
    <contour>
      <point x="355" y="0" type="line" name="hr00"/>
      <point x="355" y="254" type="line"/>
      <point x="580" y="730" type="line"/>
      <point x="444" y="730" type="line"/>
      <point x="287" y="381" type="line"/>
      <point x="130" y="730" type="line"/>
      <point x="-6" y="730" type="line"/>
      <point x="219" y="254" type="line"/>
      <point x="219" y="0" type="line"/>
    </contour>
  </outline>
</glyph>
<glyph name="underscore" format="1">
  <advance width="564"/>
  <unicode hex="005F"/>
  <outline>
    <contour>
      <point x="62" y="-92" type="line" name="hr00"/>
      <point x="502" y="-92" type="line"/>
      <point x="502" y="0" type="line"/>
      <point x="62" y="0" type="line"/>
    </contour>
  </outline>
</glyph>
<glyph name="grave" format="1">
  <advance width="298"/>
  <unicode hex="0060"/>
  <outline>
    <contour>
      <point x="271" y="692" type="line" name="hr00"/>
      <point x="76" y="825" type="line"/>
      <point x="16" y="729" type="line"/>
      <point x="226" y="620" type="line"/>
    </contour>
  </outline>
</glyph>
<glyph name="c" format="1">
  <advance width="536"/>
  <unicode hex="0063"/>
  <outline>
    <contour>
      <point x="275" y="-14" type="curve" name="hr00"/>
      <point x="429" y="-14"/>
      <point x="501" y="49"/>
      <point x="510" y="192" type="curve"/>
      <point x="405" y="197" type="line"/>
      <point x="402" y="121" smooth="yes"/>
      <point x="366" y="89" smooth="yes"/>
      <point x="288" y="89" type="curve" smooth="yes"/>
      <point x="203" y="89" smooth="yes"/>
      <point x="170" y="144" smooth="yes"/>
      <point x="170" y="286" type="curve" smooth="yes"/>
      <point x="170" y="428" smooth="yes"/>
      <point x="203" y="483" smooth="yes"/>
      <point x="288" y="483" type="curve" smooth="yes"/>
      <point x="366" y="483"/>
      <point x="402" y="451"/>
      <point x="405" y="375" type="curve"/>
      <point x="509" y="389" type="line"/>
      <point x="499" y="526" smooth="yes"/>
      <point x="427" y="586" smooth="yes"/>
      <point x="275" y="586" type="curve" smooth="yes"/>
      <point x="112" y="586" smooth="yes"/>
      <point x="36" y="491" smooth="yes"/>
      <point x="36" y="286" type="curve" smooth="yes"/>
      <point x="36" y="83" smooth="yes"/>
      <point x="113" y="-14" smooth="yes"/>
    </contour>
  </outline>
</glyph>
<glyph name="h" format="1">
  <advance width="663"/>
  <unicode hex="0068"/>
  <outline>
    <contour>
      <point x="94" y="0" type="line" name="hr00"/>
      <point x="228" y="0" type="line"/>
      <point x="228" y="438" type="line"/>
      <point x="269" y="468" smooth="yes"/>
      <point x="314" y="483" smooth="yes"/>
      <point x="362" y="483" type="curve" smooth="yes"/>
      <point x="423" y="483" smooth="yes"/>
      <point x="445" y="458" smooth="yes"/>
      <point x="445" y="390" type="curve" smooth="yes"/>
      <point x="445" y="0" type="line"/>
      <point x="579" y="0" type="line"/>
      <point x="579" y="404" type="line" smooth="yes"/>
      <point x="579" y="522" smooth="yes"/>
      <point x="516" y="586" smooth="yes"/>
      <point x="398" y="586" type="curve" smooth="yes"/>
      <point x="342" y="586"/>
      <point x="280" y="568"/>
      <point x="228" y="537" type="curve"/>
      <point x="228" y="762" type="line"/>
      <point x="94" y="752" type="line"/>
    </contour>
  </outline>
</glyph>
<glyph name="j" format="1">
  <advance width="322"/>
  <unicode hex="006A"/>
  <outline>
    <contour>
      <point x="55" y="-209" type="curve" name="hr00"/>
      <point x="169" y="-209" smooth="yes"/>
      <point x="228" y="-153" smooth="yes"/>
      <point x="228" y="-45" type="curve" smooth="yes"/>
      <point x="228" y="572" type="line"/>
      <point x="94" y="572" type="line"/>
      <point x="94" y="-45" type="line" smooth="yes"/>
      <point x="94" y="-85" smooth="yes"/>
      <point x="77" y="-104" smooth="yes"/>
      <point x="41" y="-104" type="curve" smooth="yes"/>
      <point x="16" y="-104"/>
      <point x="-4" y="-100"/>
      <point x="-27" y="-91" type="curve"/>
      <point x="-60" y="-192" type="line"/>
      <point x="-23" y="-204" smooth="yes"/>
      <point x="9" y="-209" smooth="yes"/>
    </contour>
    <contour>
      <point x="161" y="640" type="curve" smooth="yes"/>
      <point x="212" y="640" smooth="yes"/>
      <point x="238" y="666" smooth="yes"/>
      <point x="238" y="717" type="curve" smooth="yes"/>
      <point x="238" y="769" smooth="yes"/>
      <point x="212" y="795" smooth="yes"/>
      <point x="161" y="795" type="curve" smooth="yes"/>
      <point x="111" y="795" smooth="yes"/>
      <point x="86" y="769" smooth="yes"/>
      <point x="86" y="717" type="curve" smooth="yes"/>
      <point x="86" y="666" smooth="yes"/>
      <point x="111" y="640" smooth="yes"/>
    </contour>
  </outline>
</glyph>
<glyph name="k" format="1">
  <advance width="575"/>
  <unicode hex="006B"/>
  <outline>
    <contour>
      <point x="228" y="0" type="line" name="hr00"/>
      <point x="228" y="264" type="line"/>
      <point x="256" y="264" type="line"/>
      <point x="438" y="0" type="line"/>
      <point x="583" y="0" type="line"/>
      <point x="373" y="300" type="line"/>
      <point x="565" y="572" type="line"/>
      <point x="420" y="572" type="line"/>
      <point x="269" y="354" type="line"/>
      <point x="228" y="354" type="line"/>
      <point x="228" y="762" type="line"/>
      <point x="94" y="752" type="line"/>
      <point x="94" y="0" type="line"/>
    </contour>
  </outline>
</glyph>
<glyph name="m" format="1">
  <advance width="998"/>
  <unicode hex="006D"/>
  <outline>
    <contour>
      <point x="94" y="0" type="line"/>
      <point x="228" y="0" type="line"/>
      <point x="228" y="443" type="line"/>
      <point x="265" y="470" smooth="yes"/>
      <point x="305" y="483" smooth="yes"/>
      <point x="348" y="483" type="curve" smooth="yes"/>
      <point x="411" y="483" smooth="yes"/>
      <point x="437" y="454" smooth="yes"/>
      <point x="437" y="382" type="curve" smooth="yes"/>
      <point x="437" y="0" type="line" name="hr01"/>
      <point x="571" y="0" type="line"/>
      <point x="571" y="404" type="line" smooth="yes"/>
      <point x="571" y="412"/>
      <point x="570" y="422"/>
      <point x="569" y="436" type="curve"/>
      <point x="607" y="467" smooth="yes"/>
      <point x="649" y="483" smooth="yes"/>
      <point x="694" y="483" type="curve" smooth="yes"/>
      <point x="755" y="483" smooth="yes"/>
      <point x="780" y="454" smooth="yes"/>
      <point x="780" y="382" type="curve" smooth="yes"/>
      <point x="780" y="0" type="line"/>
      <point x="914" y="0" type="line"/>
      <point x="914" y="404" type="line" smooth="yes"/>
      <point x="914" y="522" smooth="yes"/>
      <point x="847" y="586" smooth="yes"/>
      <point x="722" y="586" type="curve" smooth="yes"/>
      <point x="661" y="586"/>
      <point x="593" y="560"/>
      <point x="539" y="517" type="curve"/>
      <point x="507" y="562" smooth="yes"/>
      <point x="449" y="586" smooth="yes"/>
      <point x="371" y="586" type="curve" smooth="yes"/>
      <point x="314" y="586"/>
      <point x="252" y="564"/>
      <point x="200" y="525" type="curve"/>
      <point x="165" y="572" type="line" name="hr02"/>
      <point x="94" y="572" type="line"/>
    </contour>
  </outline>
</glyph>
<glyph name="n" format="1">
  <advance width="663"/>
  <unicode hex="006E"/>
  <outline>
    <contour>
      <point x="94" y="0" type="line"/>
      <point x="228" y="0" type="line"/>
      <point x="228" y="438" type="line"/>
      <point x="269" y="468" smooth="yes"/>
      <point x="314" y="483" smooth="yes"/>
      <point x="362" y="483" type="curve" smooth="yes"/>
      <point x="423" y="483" smooth="yes"/>
      <point x="445" y="458" smooth="yes"/>
      <point x="445" y="390" type="curve" smooth="yes"/>
      <point x="445" y="0" type="line" name="hr01"/>
      <point x="579" y="0" type="line"/>
      <point x="579" y="404" type="line" smooth="yes"/>
      <point x="579" y="522" smooth="yes"/>
      <point x="516" y="586" smooth="yes"/>
      <point x="398" y="586" type="curve" smooth="yes"/>
      <point x="333" y="586"/>
      <point x="258" y="561"/>
      <point x="200" y="520" type="curve"/>
      <point x="157" y="572" type="line" name="hr02"/>
      <point x="94" y="572" type="line"/>
    </contour>
  </outline>
</glyph>
<glyph name="o" format="1">
  <advance width="592"/>
  <unicode hex="006F"/>
  <outline>
    <contour>
      <point x="296" y="-14" type="curve" name="hr00"/>
      <point x="469" y="-14" smooth="yes"/>
      <point x="556" y="87" smooth="yes"/>
      <point x="556" y="286" type="curve" smooth="yes"/>
      <point x="556" y="485" smooth="yes"/>
      <point x="469" y="586" smooth="yes"/>
      <point x="296" y="586" type="curve" smooth="yes"/>
      <point x="123" y="586" smooth="yes"/>
      <point x="36" y="485" smooth="yes"/>
      <point x="36" y="286" type="curve" smooth="yes"/>
      <point x="36" y="87" smooth="yes"/>
      <point x="123" y="-14" smooth="yes"/>
    </contour>
    <contour>
      <point x="296" y="89" type="curve" smooth="yes"/>
      <point x="206" y="89" smooth="yes"/>
      <point x="170" y="146" smooth="yes"/>
      <point x="170" y="286" type="curve" smooth="yes"/>
      <point x="170" y="426" smooth="yes"/>
      <point x="206" y="483" smooth="yes"/>
      <point x="296" y="483" type="curve" smooth="yes"/>
      <point x="386" y="483" smooth="yes"/>
      <point x="422" y="426" smooth="yes"/>
      <point x="422" y="286" type="curve" smooth="yes"/>
      <point x="422" y="146" smooth="yes"/>
      <point x="386" y="89" smooth="yes"/>
    </contour>
  </outline>
</glyph>
<glyph name="r" format="1">
  <advance width="407"/>
  <unicode hex="0072"/>
  <outline>
    <contour>
      <point x="94" y="0" type="line"/>
      <point x="228" y="0" type="line"/>
      <point x="228" y="399" type="line"/>
      <point x="267" y="445"/>
      <point x="325" y="469"/>
      <point x="405" y="471" type="curve"/>
      <point x="405" y="586" type="line"/>
      <point x="320" y="582"/>
      <point x="256" y="548"/>
      <point x="210" y="483" type="curve" name="hr01"/>
      <point x="157" y="572" type="line" name="hr02"/>
      <point x="94" y="572" type="line"/>
    </contour>
  </outline>
</glyph>
<glyph name="s" format="1">
  <advance width="546"/>
  <unicode hex="0073"/>
  <outline>
    <contour>
      <point x="263" y="-11" type="curve" name="hr00"/>
      <point x="424" y="-11" smooth="yes"/>
      <point x="503" y="46" smooth="yes"/>
      <point x="503" y="160" type="curve" smooth="yes"/>
      <point x="503" y="259" smooth="yes"/>
      <point x="455" y="306" smooth="yes"/>
      <point x="335" y="336" type="curve" smooth="yes"/>
      <point x="283" y="349" type="line" smooth="yes"/>
      <point x="206" y="368" smooth="yes"/>
      <point x="184" y="381" smooth="yes"/>
      <point x="184" y="420" type="curve" smooth="yes"/>
      <point x="184" y="465" smooth="yes"/>
      <point x="218" y="488" smooth="yes"/>
      <point x="286" y="488" type="curve" smooth="yes"/>
      <point x="349" y="488"/>
      <point x="386" y="455"/>
      <point x="394" y="393" type="curve"/>
      <point x="498" y="408" type="line"/>
      <point x="481" y="529" smooth="yes"/>
      <point x="414" y="586" smooth="yes"/>
      <point x="287" y="586" type="curve" smooth="yes"/>
      <point x="131" y="586" smooth="yes"/>
      <point x="55" y="531" smooth="yes"/>
      <point x="55" y="416" type="curve" smooth="yes"/>
      <point x="55" y="315" smooth="yes"/>
      <point x="101" y="265" smooth="yes"/>
      <point x="221" y="237" type="curve" smooth="yes"/>
      <point x="267" y="226" type="line" smooth="yes"/>
      <point x="354" y="206" smooth="yes"/>
      <point x="375" y="192" smooth="yes"/>
      <point x="375" y="155" type="curve" smooth="yes"/>
      <point x="375" y="111" smooth="yes"/>
      <point x="336" y="87" smooth="yes"/>
      <point x="264" y="87" type="curve" smooth="yes"/>
      <point x="195" y="87"/>
      <point x="154" y="120"/>
      <point x="147" y="183" type="curve"/>
      <point x="43" y="167" type="line"/>
      <point x="60" y="45" smooth="yes"/>
      <point x="129" y="-11" smooth="yes"/>
    </contour>
  </outline>
</glyph>
<glyph name="t" format="1">
  <advance width="360"/>
  <unicode hex="0074"/>
  <outline>
    <contour>
      <point x="243" y="-14" type="curve" name="hr00"/>
      <point x="275" y="-14"/>
      <point x="318" y="-6"/>
      <point x="355" y="8" type="curve"/>
      <point x="338" y="91" type="line"/>
      <point x="310" y="85" smooth="yes"/>
      <point x="301" y="83" smooth="yes"/>
      <point x="289" y="83" type="curve" smooth="yes"/>
      <point x="250" y="83" smooth="yes"/>
      <point x="235" y="105" smooth="yes"/>
      <point x="235" y="162" type="curve" smooth="yes"/>
      <point x="235" y="485" type="line"/>
      <point x="344" y="485" type="line"/>
      <point x="344" y="572" type="line"/>
      <point x="235" y="572" type="line"/>
      <point x="235" y="710" type="line"/>
      <point x="101" y="676" type="line"/>
      <point x="101" y="572" type="line"/>
      <point x="9" y="572" type="line"/>
      <point x="9" y="485" type="line"/>
      <point x="101" y="485" type="line"/>
      <point x="101" y="149" type="line" smooth="yes"/>
      <point x="101" y="35" smooth="yes"/>
      <point x="144" y="-14" smooth="yes"/>
    </contour>
  </outline>
</glyph>
<glyph name="v" format="1">
  <advance width="545"/>
  <unicode hex="0076"/>
  <outline>
    <contour>
      <point x="347" y="0" type="line" name="hr00"/>
      <point x="541" y="572" type="line"/>
      <point x="406" y="572" type="line"/>
      <point x="272" y="158" type="line"/>
      <point x="139" y="572" type="line"/>
      <point x="4" y="572" type="line"/>
      <point x="198" y="0" type="line"/>
    </contour>
  </outline>
</glyph>
<glyph name="w" format="1">
  <advance width="758"/>
  <unicode hex="0077"/>
  <outline>
    <contour>
      <point x="282" y="0" type="line" name="hr00"/>
      <point x="379" y="346" type="line"/>
      <point x="476" y="0" type="line"/>
      <point x="603" y="0" type="line"/>
      <point x="749" y="572" type="line"/>
      <point x="614" y="572" type="line"/>
      <point x="529" y="180" type="line"/>
      <point x="435" y="522" type="line"/>
      <point x="322" y="522" type="line"/>
      <point x="228" y="180" type="line"/>
      <point x="144" y="572" type="line"/>
      <point x="9" y="572" type="line"/>
      <point x="156" y="0" type="line"/>
    </contour>
  </outline>
</glyph>
<glyph name="sterling" format="1">
  <advance width="630"/>
  <unicode hex="00A3"/>
  <outline>
    <contour>
      <point x="67" y="0" type="line" name="hr00"/>
      <point x="592" y="0" type="line"/>
      <point x="592" y="106" type="line"/>
      <point x="217" y="106" type="line"/>
      <point x="251" y="134" smooth="yes"/>
      <point x="263" y="162" smooth="yes"/>
      <point x="263" y="217" type="curve" smooth="yes"/>
      <point x="263" y="298" type="line"/>
      <point x="473" y="298" type="line"/>
      <point x="473" y="389" type="line"/>
      <point x="263" y="389" type="line"/>
      <point x="263" y="524" type="line" smooth="yes"/>
      <point x="263" y="606" smooth="yes"/>
      <point x="291" y="638" smooth="yes"/>
      <point x="361" y="638" type="curve" smooth="yes"/>
      <point x="430" y="638"/>
      <point x="463" y="598"/>
      <point x="463" y="513" type="curve"/>
      <point x="581" y="522" type="line"/>
      <point x="581" y="677" smooth="yes"/>
      <point x="513" y="744" smooth="yes"/>
      <point x="354" y="744" type="curve" smooth="yes"/>
      <point x="200" y="744" smooth="yes"/>
      <point x="127" y="673" smooth="yes"/>
      <point x="127" y="524" type="curve" smooth="yes"/>
      <point x="127" y="389" type="line"/>
      <point x="62" y="389" type="line"/>
      <point x="62" y="298" type="line"/>
      <point x="127" y="298" type="line"/>
      <point x="127" y="195" type="line" smooth="yes"/>
      <point x="127" y="150"/>
      <point x="104" y="108"/>
      <point x="67" y="83" type="curve"/>
    </contour>
  </outline>
</glyph>
<glyph name="brokenbar" format="1">
  <advance width="337"/>
  <unicode hex="00A6"/>
  <outline>
    <contour>
      <point x="96" y="421" type="line" name="hr00"/>
      <point x="241" y="421" type="line"/>
      <point x="241" y="775" type="line"/>
      <point x="96" y="775" type="line"/>
    </contour>
    <contour>
      <point x="96" y="-106" type="line"/>
      <point x="241" y="-106" type="line"/>
      <point x="241" y="248" type="line"/>
      <point x="96" y="248" type="line"/>
    </contour>
  </outline>
</glyph>
<glyph name="dieresis" format="1">
  <advance width="372"/>
  <unicode hex="00A8"/>
  <outline>
    <contour>
      <point x="76" y="643" type="curve" name="hr00"/>
      <point x="141" y="643" smooth="yes"/>
      <point x="145" y="680" smooth="yes"/>
      <point x="145" y="717" type="curve" smooth="yes"/>
      <point x="145" y="751" smooth="yes"/>
      <point x="141" y="792" smooth="yes"/>
      <point x="76" y="792" type="curve" smooth="yes"/>
      <point x="13" y="792" smooth="yes"/>
      <point x="9" y="751" smooth="yes"/>
      <point x="9" y="717" type="curve" smooth="yes"/>
      <point x="9" y="680" smooth="yes"/>
      <point x="13" y="643" smooth="yes"/>
    </contour>
    <contour>
      <point x="294" y="643" type="curve"/>
      <point x="359" y="643" smooth="yes"/>
      <point x="363" y="680" smooth="yes"/>
      <point x="363" y="717" type="curve" smooth="yes"/>
      <point x="363" y="751" smooth="yes"/>
      <point x="359" y="792" smooth="yes"/>
      <point x="294" y="792" type="curve" smooth="yes"/>
      <point x="231" y="792" smooth="yes"/>
      <point x="227" y="751" smooth="yes"/>
      <point x="227" y="717" type="curve" smooth="yes"/>
      <point x="227" y="680" smooth="yes"/>
      <point x="231" y="643" smooth="yes"/>
    </contour>
  </outline>
</glyph>
<glyph name="guillemotleft" format="1">
  <advance width="536"/>
  <unicode hex="00AB"/>
  <outline>
    <contour>
      <point x="267" y="466" type="line" name="hr00"/>
      <point x="202" y="530" type="line"/>
      <point x="22" y="339" type="line"/>
      <point x="22" y="291" type="line"/>
      <point x="202" y="100" type="line"/>
      <point x="267" y="164" type="line"/>
      <point x="153" y="315" type="line"/>
    </contour>
    <contour>
      <point x="498" y="466" type="line"/>
      <point x="433" y="530" type="line"/>
      <point x="253" y="339" type="line"/>
      <point x="253" y="291" type="line"/>
      <point x="433" y="100" type="line"/>
      <point x="498" y="164" type="line"/>
      <point x="384" y="315" type="line"/>
    </contour>
  </outline>
</glyph>
<glyph name="registered" format="1">
  <advance width="735"/>
  <unicode hex="00AE"/>
  <outline>
    <contour>
      <point x="242" y="360" type="line" name="hr00"/>
      <point x="318" y="360" type="line"/>
      <point x="318" y="517" type="line"/>
      <point x="350" y="517" type="line" smooth="yes"/>
      <point x="368" y="517" smooth="yes"/>
      <point x="378" y="510" smooth="yes"/>
      <point x="386" y="490" type="curve" smooth="yes"/>
      <point x="442" y="360" type="line"/>
      <point x="522" y="360" type="line"/>
      <point x="464" y="494" type="line" smooth="yes"/>
      <point x="457" y="509"/>
      <point x="449" y="520"/>
      <point x="440" y="529" type="curve"/>
      <point x="483" y="541" smooth="yes"/>
      <point x="505" y="579" smooth="yes"/>
      <point x="505" y="643" type="curve" smooth="yes"/>
      <point x="505" y="721" smooth="yes"/>
      <point x="460" y="762" smooth="yes"/>
      <point x="373" y="762" type="curve" smooth="yes"/>
      <point x="242" y="762" type="line"/>
    </contour>
    <contour>
      <point x="367" y="243" type="curve"/>
      <point x="573" y="243" smooth="yes"/>
      <point x="685" y="354" smooth="yes"/>
      <point x="685" y="560" type="curve" smooth="yes"/>
      <point x="685" y="766" smooth="yes"/>
      <point x="573" y="878" smooth="yes"/>
      <point x="367" y="878" type="curve" smooth="yes"/>
      <point x="161" y="878" smooth="yes"/>
      <point x="50" y="766" smooth="yes"/>
      <point x="50" y="560" type="curve" smooth="yes"/>
      <point x="50" y="354" smooth="yes"/>
      <point x="161" y="243" smooth="yes"/>
    </contour>
    <contour>
      <point x="367" y="310" type="curve"/>
      <point x="205" y="310" smooth="yes"/>
      <point x="122" y="394" smooth="yes"/>
      <point x="122" y="560" type="curve" smooth="yes"/>
      <point x="122" y="726" smooth="yes"/>
      <point x="205" y="811" smooth="yes"/>
      <point x="367" y="811" type="curve" smooth="yes"/>
      <point x="529" y="811" smooth="yes"/>
      <point x="613" y="726" smooth="yes"/>
      <point x="613" y="560" type="curve" smooth="yes"/>
      <point x="613" y="395" smooth="yes"/>
      <point x="530" y="310" smooth="yes"/>
    </contour>
    <contour>
      <point x="318" y="574" type="line"/>
      <point x="318" y="704" type="line"/>
      <point x="372" y="704" type="line" smooth="yes"/>
      <point x="410" y="704" smooth="yes"/>
      <point x="429" y="683" smooth="yes"/>
      <point x="429" y="639" type="curve" smooth="yes"/>
      <point x="429" y="595" smooth="yes"/>
      <point x="410" y="574" smooth="yes"/>
      <point x="372" y="574" type="curve" smooth="yes"/>
    </contour>
  </outline>
</glyph>
<glyph name="paragraph" format="1">
  <advance width="513"/>
  <unicode hex="00B6"/>
  <outline>
    <contour>
      <point x="263" y="0" type="line" name="hr00"/>
      <point x="399" y="0" type="line"/>
      <point x="399" y="670" type="line"/>
      <point x="219" y="670" type="line" smooth="yes"/>
      <point x="93" y="670" smooth="yes"/>
      <point x="14" y="592" smooth="yes"/>
      <point x="14" y="469" type="curve" smooth="yes"/>
      <point x="14" y="347" smooth="yes"/>
      <point x="94" y="269" smooth="yes"/>
      <point x="219" y="269" type="curve" smooth="yes"/>
      <point x="263" y="269" type="line"/>
    </contour>
  </outline>
</glyph>
<glyph name="cedilla" format="1">
  <advance width="279"/>
  <unicode hex="00B8"/>
  <outline>
    <contour>
      <point x="137" y="-252" type="curve" name="hr00"/>
      <point x="215" y="-252" smooth="yes"/>
      <point x="261" y="-213" smooth="yes"/>
      <point x="261" y="-147" type="curve" smooth="yes"/>
      <point x="261" y="-93"/>
      <point x="222" y="-57"/>
      <point x="154" y="-48" type="curve"/>
      <point x="168" y="15" type="line"/>
      <point x="110" y="15" type="line"/>
      <point x="85" y="-87" type="line"/>
      <point x="147" y="-97" smooth="yes"/>
      <point x="170" y="-113" smooth="yes"/>
      <point x="170" y="-147" type="curve" smooth="yes"/>
      <point x="170" y="-169" smooth="yes"/>
      <point x="159" y="-182" smooth="yes"/>
      <point x="138" y="-182" type="curve" smooth="yes"/>
      <point x="119" y="-182"/>
      <point x="110" y="-169"/>
      <point x="110" y="-141" type="curve"/>
      <point x="30" y="-150" type="line"/>
      <point x="35" y="-219" smooth="yes"/>
      <point x="70" y="-252" smooth="yes"/>
    </contour>
  </outline>
</glyph>
<glyph name="ordmasculine" format="1">
  <advance width="409"/>
  <unicode hex="00BA"/>
  <outline>
    <contour>
      <point x="204" y="340" type="curve" smooth="yes" name="hr00"/>
      <point x="329" y="340" smooth="yes"/>
      <point x="393" y="411" smooth="yes"/>
      <point x="393" y="550" type="curve" smooth="yes"/>
      <point x="393" y="689" smooth="yes"/>
      <point x="330" y="760" smooth="yes"/>
      <point x="204" y="760" type="curve" smooth="yes"/>
      <point x="79" y="760" smooth="yes"/>
      <point x="16" y="689" smooth="yes"/>
      <point x="16" y="550" type="curve" smooth="yes"/>
      <point x="16" y="411" smooth="yes"/>
      <point x="80" y="340" smooth="yes"/>
    </contour>
    <contour>
      <point x="204" y="431" type="curve" smooth="yes"/>
      <point x="154" y="431" smooth="yes"/>
      <point x="137" y="461" smooth="yes"/>
      <point x="137" y="550" type="curve" smooth="yes"/>
      <point x="137" y="639" smooth="yes"/>
      <point x="154" y="669" smooth="yes"/>
      <point x="204" y="669" type="curve" smooth="yes"/>
      <point x="255" y="669" smooth="yes"/>
      <point x="272" y="639" smooth="yes"/>
      <point x="272" y="550" type="curve" smooth="yes"/>
      <point x="272" y="461" smooth="yes"/>
      <point x="255" y="431" smooth="yes"/>
    </contour>
    <contour>
      <point x="26" y="204" type="line"/>
      <point x="383" y="204" type="line"/>
      <point x="383" y="281" type="line"/>
      <point x="26" y="281" type="line"/>
    </contour>
  </outline>
</glyph>
<glyph name="multiply" format="1">
  <advance width="580"/>
  <unicode hex="00D7"/>
  <outline>
    <contour>
      <point x="161" y="123" type="line" name="hr00"/>
      <point x="290" y="253" type="line"/>
      <point x="419" y="123" type="line"/>
      <point x="485" y="189" type="line"/>
      <point x="355" y="318" type="line"/>
      <point x="485" y="447" type="line"/>
      <point x="419" y="513" type="line"/>
      <point x="290" y="383" type="line"/>
      <point x="161" y="513" type="line"/>
      <point x="95" y="447" type="line"/>
      <point x="225" y="318" type="line"/>
      <point x="95" y="189" type="line"/>
    </contour>
  </outline>
</glyph>
<glyph name="Thorn" format="1">
  <advance width="587"/>
  <unicode hex="00DE"/>
  <outline>
    <contour>
      <point x="94" y="0" type="line" name="hr00"/>
      <point x="230" y="0" type="line"/>
      <point x="230" y="137" type="line"/>
      <point x="342" y="137" type="line" smooth="yes"/>
      <point x="489" y="137" smooth="yes"/>
      <point x="569" y="216" smooth="yes"/>
      <point x="569" y="364" type="curve" smooth="yes"/>
      <point x="569" y="512" smooth="yes"/>
      <point x="490" y="592" smooth="yes"/>
      <point x="342" y="592" type="curve" smooth="yes"/>
      <point x="230" y="592" type="line"/>
      <point x="230" y="730" type="line"/>
      <point x="94" y="730" type="line"/>
    </contour>
    <contour>
      <point x="230" y="247" type="line"/>
      <point x="230" y="482" type="line"/>
      <point x="320" y="482" type="line" smooth="yes"/>
      <point x="397" y="482" smooth="yes"/>
      <point x="433" y="444" smooth="yes"/>
      <point x="433" y="364" type="curve" smooth="yes"/>
      <point x="433" y="284" smooth="yes"/>
      <point x="397" y="247" smooth="yes"/>
      <point x="320" y="247" type="curve" smooth="yes"/>
    </contour>
  </outline>
</glyph>
<glyph name="germandbls" format="1">
  <advance width="660"/>
  <unicode hex="00DF"/>
  <outline>
    <contour>
      <point x="447" y="-14" type="curve"/>
      <point x="572" y="-14" smooth="yes"/>
      <point x="646" y="62" smooth="yes"/>
      <point x="646" y="189" type="curve" smooth="yes"/>
      <point x="646" y="295"/>
      <point x="593" y="364"/>
      <point x="496" y="385" type="curve" name="hr01"/>
      <point x="549" y="426" smooth="yes"/>
      <point x="579" y="483" smooth="yes"/>
      <point x="579" y="544" type="curve" smooth="yes"/>
      <point x="579" y="670" smooth="yes"/>
      <point x="493" y="746" smooth="yes"/>
      <point x="350" y="746" type="curve" smooth="yes"/>
      <point x="187" y="746" smooth="yes"/>
      <point x="104" y="673" smooth="yes"/>
      <point x="104" y="528" type="curve" smooth="yes"/>
      <point x="104" y="0" type="line"/>
      <point x="238" y="0" type="line"/>
      <point x="238" y="528" type="line" smooth="yes"/>
      <point x="238" y="602" smooth="yes"/>
      <point x="272" y="640" smooth="yes"/>
      <point x="339" y="640" type="curve" smooth="yes"/>
      <point x="410" y="640" smooth="yes"/>
      <point x="445" y="603" smooth="yes"/>
      <point x="445" y="528" type="curve" smooth="yes"/>
      <point x="445" y="457" smooth="yes"/>
      <point x="414" y="416" smooth="yes"/>
      <point x="360" y="416" type="curve" smooth="yes"/>
      <point x="308" y="416" type="line"/>
      <point x="308" y="317" type="line"/>
      <point x="409" y="317" type="line" smooth="yes" name="hr02"/>
      <point x="482" y="317" smooth="yes"/>
      <point x="512" y="285" smooth="yes"/>
      <point x="512" y="207" type="curve" smooth="yes"/>
      <point x="512" y="131" smooth="yes"/>
      <point x="489" y="92" smooth="yes"/>
      <point x="446" y="92" type="curve" smooth="yes"/>
      <point x="399" y="92"/>
      <point x="383" y="118"/>
      <point x="383" y="195" type="curve"/>
      <point x="274" y="195" type="line"/>
      <point x="274" y="49" smooth="yes"/>
      <point x="326" y="-14" smooth="yes"/>
    </contour>
  </outline>
</glyph>
<glyph name="thorn" format="1">
  <advance width="634"/>
  <unicode hex="00FE"/>
  <outline>
    <contour>
      <point x="94" y="-205" type="line" name="hr00"/>
      <point x="228" y="-205" type="line"/>
      <point x="228" y="11" type="line"/>
      <point x="275" y="-5" smooth="yes"/>
      <point x="327" y="-14" smooth="yes"/>
      <point x="369" y="-14" type="curve" smooth="yes"/>
      <point x="521" y="-14" smooth="yes"/>
      <point x="598" y="87" smooth="yes"/>
      <point x="598" y="286" type="curve" smooth="yes"/>
      <point x="598" y="485" smooth="yes"/>
      <point x="521" y="586" smooth="yes"/>
      <point x="370" y="586" type="curve" smooth="yes"/>
      <point x="324" y="586"/>
      <point x="273" y="570"/>
      <point x="228" y="542" type="curve"/>
      <point x="228" y="742" type="line"/>
      <point x="94" y="730" type="line"/>
    </contour>
    <contour>
      <point x="337" y="90" type="curve"/>
      <point x="299" y="90"/>
      <point x="265" y="96"/>
      <point x="228" y="109" type="curve"/>
      <point x="228" y="443" type="line"/>
      <point x="262" y="469" smooth="yes"/>
      <point x="298" y="482" smooth="yes"/>
      <point x="336" y="482" type="curve" smooth="yes"/>
      <point x="421" y="482" smooth="yes"/>
      <point x="464" y="416" smooth="yes"/>
      <point x="464" y="286" type="curve" smooth="yes"/>
      <point x="464" y="152" smooth="yes"/>
      <point x="424" y="90" smooth="yes"/>
    </contour>
  </outline>
</glyph>
<glyph name="dotlessi" format="1">
  <advance width="322"/>
  <unicode hex="0131"/>
  <outline>
    <contour>
      <point x="94" y="572" type="line" name="hr00"/>
      <point x="94" y="0" type="line"/>
      <point x="228" y="0" type="line"/>
      <point x="228" y="572" type="line"/>
    </contour>
  </outline>
</glyph>
<glyph name="OE" format="1">
  <advance width="949"/>
  <unicode hex="0152"/>
  <outline>
    <contour>
      <point x="349" y="0" type="curve" smooth="yes" name="hr00"/>
      <point x="915" y="0" type="line"/>
      <point x="915" y="105" type="line"/>
      <point x="586" y="105" type="line"/>
      <point x="619" y="155"/>
      <point x="637" y="223"/>
      <point x="642" y="319" type="curve"/>
      <point x="870" y="319" type="line"/>
      <point x="870" y="423" type="line"/>
      <point x="641" y="423" type="line"/>
      <point x="635" y="511"/>
      <point x="617" y="576"/>
      <point x="586" y="625" type="curve"/>
      <point x="895" y="625" type="line"/>
      <point x="895" y="730" type="line"/>
      <point x="350" y="730" type="line" smooth="yes"/>
      <point x="147" y="730" smooth="yes"/>
      <point x="56" y="617" smooth="yes"/>
      <point x="56" y="365" type="curve" smooth="yes"/>
      <point x="56" y="112" smooth="yes"/>
      <point x="146" y="0" smooth="yes"/>
    </contour>
    <contour>
      <point x="349" y="109" type="curve" smooth="yes"/>
      <point x="240" y="109" smooth="yes"/>
      <point x="192" y="187" smooth="yes"/>
      <point x="192" y="365" type="curve" smooth="yes"/>
      <point x="192" y="543" smooth="yes"/>
      <point x="240" y="621" smooth="yes"/>
      <point x="349" y="621" type="curve" smooth="yes"/>
      <point x="458" y="621" smooth="yes"/>
      <point x="507" y="542" smooth="yes"/>
      <point x="507" y="365" type="curve" smooth="yes"/>
      <point x="507" y="188" smooth="yes"/>
      <point x="458" y="109" smooth="yes"/>
    </contour>
  </outline>
</glyph>
<glyph name="dotaccent" format="1">
  <advance width="258"/>
  <unicode hex="02D9"/>
  <outline>
    <contour>
      <point x="136" y="636" type="curve" name="hr00"/>
      <point x="190" y="636" smooth="yes"/>
      <point x="213" y="663" smooth="yes"/>
      <point x="213" y="725" type="curve" smooth="yes"/>
      <point x="213" y="788" smooth="yes"/>
      <point x="190" y="815" smooth="yes"/>
      <point x="136" y="815" type="curve" smooth="yes"/>
      <point x="83" y="815" smooth="yes"/>
      <point x="61" y="788" smooth="yes"/>
      <point x="61" y="725" type="curve" smooth="yes"/>
      <point x="61" y="663" smooth="yes"/>
      <point x="84" y="636" smooth="yes"/>
    </contour>
  </outline>
</glyph>
<glyph name="ring" format="1">
  <advance width="258"/>
  <unicode hex="02DA"/>
  <outline>
    <contour>
      <point x="127" y="612" type="curve" smooth="yes" name="hr00"/>
      <point x="200" y="612" smooth="yes"/>
      <point x="242" y="653" smooth="yes"/>
      <point x="242" y="724" type="curve" smooth="yes"/>
      <point x="242" y="796" smooth="yes"/>
      <point x="200" y="837" smooth="yes"/>
      <point x="127" y="837" type="curve" smooth="yes"/>
      <point x="56" y="837" smooth="yes"/>
      <point x="16" y="796" smooth="yes"/>
      <point x="16" y="724" type="curve" smooth="yes"/>
      <point x="16" y="653" smooth="yes"/>
      <point x="56" y="612" smooth="yes"/>
    </contour>
    <contour>
      <point x="127" y="676" type="curve" smooth="yes"/>
      <point x="103" y="676" smooth="yes"/>
      <point x="90" y="693" smooth="yes"/>
      <point x="90" y="724" type="curve" smooth="yes"/>
      <point x="90" y="756" smooth="yes"/>
      <point x="103" y="774" smooth="yes"/>
      <point x="127" y="774" type="curve" smooth="yes"/>
      <point x="154" y="774" smooth="yes"/>
      <point x="168" y="756" smooth="yes"/>
      <point x="168" y="724" type="curve" smooth="yes"/>
      <point x="168" y="693" smooth="yes"/>
      <point x="154" y="676" smooth="yes"/>
    </contour>
  </outline>
</glyph>
<glyph name="ogonek" format="1">
  <advance width="316"/>
  <unicode hex="02DB"/>
  <outline>
    <contour>
      <point x="161" y="-220" type="curve" name="hr00"/>
      <point x="218" y="-220"/>
      <point x="270" y="-185"/>
      <point x="303" y="-125" type="curve"/>
      <point x="250" y="-90" type="line"/>
      <point x="228" y="-128" smooth="yes"/>
      <point x="199" y="-149" smooth="yes"/>
      <point x="168" y="-149" type="curve" smooth="yes"/>
      <point x="140" y="-149" smooth="yes"/>
      <point x="125" y="-134" smooth="yes"/>
      <point x="125" y="-105" type="curve" smooth="yes"/>
      <point x="125" y="-80" smooth="yes"/>
      <point x="140" y="-62" smooth="yes"/>
      <point x="182" y="-35" type="curve" smooth="yes"/>
      <point x="238" y="0" type="line"/>
      <point x="209" y="43" type="line"/>
      <point x="152" y="9" type="line" smooth="yes"/>
      <point x="72" y="-38" smooth="yes"/>
      <point x="46" y="-71" smooth="yes"/>
      <point x="46" y="-124" type="curve" smooth="yes"/>
      <point x="46" y="-186" smooth="yes"/>
      <point x="87" y="-220" smooth="yes"/>
    </contour>
  </outline>
</glyph>
<glyph name="tilde" format="1">
  <advance width="394"/>
  <unicode hex="02DC"/>
  <outline>
    <contour>
      <point x="270" y="661" type="curve" smooth="yes"/>
      <point x="315" y="661"/>
      <point x="350" y="690"/>
      <point x="374" y="778" type="curve"/>
      <point x="300" y="802" type="line"/>
      <point x="291" y="772" smooth="yes"/>
      <point x="280" y="758" smooth="yes"/>
      <point x="256" y="758" type="curve" smooth="yes"/>
      <point x="226" y="758" smooth="yes"/>
      <point x="169" y="794" smooth="yes"/>
      <point x="124" y="794" type="curve" smooth="yes" name="hr01"/>
      <point x="79" y="794"/>
      <point x="44" y="765"/>
      <point x="20" y="677" type="curve"/>
      <point x="95" y="653" type="line"/>
      <point x="104" y="683" smooth="yes"/>
      <point x="115" y="697" smooth="yes"/>
      <point x="139" y="697" type="curve" smooth="yes"/>
      <point x="169" y="697" smooth="yes"/>
      <point x="225" y="661" smooth="yes"/>
    </contour>
  </outline>
</glyph>
<glyph name="hungarumlaut" format="1">
  <advance width="532"/>
  <unicode hex="02DD"/>
  <outline>
    <contour>
      <point x="47" y="620" type="line" name="hr00"/>
      <point x="257" y="729" type="line"/>
      <point x="197" y="825" type="line"/>
      <point x="2" y="692" type="line"/>
    </contour>
    <contour>
      <point x="320" y="620" type="line"/>
      <point x="530" y="729" type="line"/>
      <point x="470" y="825" type="line"/>
      <point x="275" y="692" type="line"/>
    </contour>
  </outline>
</glyph>
<glyph name="emdash" format="1">
  <advance width="897"/>
  <unicode hex="2014"/>
  <outline>
    <contour>
      <point x="62" y="272" type="line" name="hr00"/>
      <point x="835" y="272" type="line"/>
      <point x="835" y="364" type="line"/>
      <point x="62" y="364" type="line"/>
    </contour>
  </outline>
</glyph>
<glyph name="quoteright" format="1">
  <advance width="250"/>
  <unicode hex="2019"/>
  <outline>
    <contour>
      <point x="82" y="705" type="curve" smooth="yes"/>
      <point x="82" y="658" smooth="yes"/>
      <point x="102" y="636" smooth="yes"/>
      <point x="102" y="608" type="curve" smooth="yes" name="hr01"/>
      <point x="102" y="578"/>
      <point x="82" y="548"/>
      <point x="56" y="529" type="curve"/>
      <point x="91" y="489" type="line"/>
      <point x="149" y="532" smooth="yes"/>
      <point x="218" y="602" smooth="yes"/>
      <point x="218" y="705" type="curve" smooth="yes"/>
      <point x="218" y="743" smooth="yes"/>
      <point x="208" y="783" smooth="yes"/>
      <point x="147" y="783" type="curve" smooth="yes"/>
      <point x="86" y="783" smooth="yes"/>
      <point x="82" y="743" smooth="yes"/>
    </contour>
  </outline>
</glyph>
<glyph name="quotedblleft" format="1">
  <advance width="455"/>
  <unicode hex="201C"/>
  <outline>
    <contour>
      <point x="192" y="567" type="curve" smooth="yes"/>
      <point x="192" y="613" smooth="yes"/>
      <point x="172" y="636" smooth="yes"/>
      <point x="172" y="663" type="curve" smooth="yes" name="hr01"/>
      <point x="172" y="694"/>
      <point x="192" y="719"/>
      <point x="218" y="742" type="curve"/>
      <point x="183" y="783" type="line"/>
      <point x="125" y="740" smooth="yes"/>
      <point x="56" y="669" smooth="yes"/>
      <point x="56" y="567" type="curve" smooth="yes"/>
      <point x="56" y="529" smooth="yes"/>
      <point x="64" y="489" smooth="yes"/>
      <point x="125" y="489" type="curve" smooth="yes"/>
      <point x="186" y="489" smooth="yes"/>
      <point x="192" y="529" smooth="yes"/>
    </contour>
    <contour>
      <point x="373" y="567" type="curve" smooth="yes"/>
      <point x="373" y="613" smooth="yes"/>
      <point x="353" y="636" smooth="yes"/>
      <point x="353" y="663" type="curve" smooth="yes" name="hr03"/>
      <point x="353" y="694"/>
      <point x="373" y="723"/>
      <point x="399" y="742" type="curve"/>
      <point x="364" y="783" type="line"/>
      <point x="306" y="740" smooth="yes"/>
      <point x="237" y="669" smooth="yes"/>
      <point x="237" y="567" type="curve" smooth="yes"/>
      <point x="237" y="529" smooth="yes"/>
      <point x="247" y="489" smooth="yes"/>
      <point x="308" y="489" type="curve" smooth="yes"/>
      <point x="369" y="489" smooth="yes"/>
      <point x="373" y="529" smooth="yes"/>
    </contour>
  </outline>
</glyph>
<glyph name="quotedblright" format="1">
  <advance width="455"/>
  <unicode hex="201D"/>
  <outline>
    <contour>
      <point x="263" y="705" type="curve" smooth="yes"/>
      <point x="263" y="658" smooth="yes"/>
      <point x="283" y="636" smooth="yes"/>
      <point x="283" y="608" type="curve" smooth="yes" name="hr01"/>
      <point x="283" y="578"/>
      <point x="263" y="552"/>
      <point x="237" y="529" type="curve"/>
      <point x="272" y="489" type="line"/>
      <point x="330" y="532" smooth="yes"/>
      <point x="399" y="602" smooth="yes"/>
      <point x="399" y="705" type="curve" smooth="yes"/>
      <point x="399" y="743" smooth="yes"/>
      <point x="391" y="783" smooth="yes"/>
      <point x="330" y="783" type="curve" smooth="yes"/>
      <point x="269" y="783" smooth="yes"/>
      <point x="263" y="743" smooth="yes"/>
    </contour>
    <contour>
      <point x="82" y="705" type="curve" smooth="yes"/>
      <point x="82" y="658" smooth="yes"/>
      <point x="102" y="636" smooth="yes"/>
      <point x="102" y="608" type="curve" smooth="yes" name="hr03"/>
      <point x="102" y="578"/>
      <point x="82" y="548"/>
      <point x="56" y="529" type="curve"/>
      <point x="91" y="489" type="line"/>
      <point x="149" y="532" smooth="yes"/>
      <point x="218" y="602" smooth="yes"/>
      <point x="218" y="705" type="curve" smooth="yes"/>
      <point x="218" y="743" smooth="yes"/>
      <point x="208" y="783" smooth="yes"/>
      <point x="147" y="783" type="curve" smooth="yes"/>
      <point x="86" y="783" smooth="yes"/>
      <point x="82" y="743" smooth="yes"/>
    </contour>
  </outline>
</glyph>
<glyph name="daggerdbl" format="1">
  <advance width="472"/>
  <unicode hex="2021"/>
  <outline>
    <contour>
      <point x="12" y="158" type="line" name="hr00"/>
      <point x="66" y="158" type="line"/>
      <point x="174" y="169" type="line"/>
      <point x="162" y="0" type="line"/>
      <point x="310" y="0" type="line"/>
      <point x="298" y="169" type="line"/>
      <point x="406" y="158" type="line"/>
      <point x="460" y="158" type="line"/>
      <point x="460" y="264" type="line"/>
      <point x="406" y="264" type="line"/>
      <point x="292" y="252" type="line"/>
      <point x="284" y="365" type="line"/>
      <point x="292" y="477" type="line"/>
      <point x="406" y="466" type="line"/>
      <point x="460" y="466" type="line"/>
      <point x="460" y="572" type="line"/>
      <point x="406" y="572" type="line"/>
      <point x="298" y="561" type="line"/>
      <point x="310" y="730" type="line"/>
      <point x="162" y="730" type="line"/>
      <point x="174" y="561" type="line"/>
      <point x="66" y="572" type="line"/>
      <point x="12" y="572" type="line"/>
      <point x="12" y="466" type="line"/>
      <point x="66" y="466" type="line"/>
      <point x="180" y="477" type="line"/>
      <point x="188" y="365" type="line"/>
      <point x="180" y="252" type="line"/>
      <point x="66" y="264" type="line"/>
      <point x="12" y="264" type="line"/>
    </contour>
  </outline>
</glyph>
<glyph name="guilsinglleft" format="1">
  <advance width="305"/>
  <unicode hex="2039"/>
  <outline>
    <contour>
      <point x="267" y="466" type="line" name="hr00"/>
      <point x="202" y="530" type="line"/>
      <point x="22" y="339" type="line"/>
      <point x="22" y="291" type="line"/>
      <point x="202" y="100" type="line"/>
      <point x="267" y="164" type="line"/>
      <point x="153" y="315" type="line"/>
    </contour>
  </outline>
</glyph>
<glyph name="fraction" format="1">
  <advance width="283"/>
  <unicode hex="2044"/>
  <outline>
    <contour>
      <point x="-8" y="-66" type="line" name="hr00"/>
      <point x="76" y="-66" type="line"/>
      <point x="291" y="735" type="line"/>
      <point x="206" y="735" type="line"/>
    </contour>
  </outline>
</glyph>
<glyph name="twoinferior" format="1">
  <advance width="387"/>
  <unicode hex="2082"/>
  <outline>
    <contour>
      <point x="38" y="-107" type="line" name="hr00"/>
      <point x="341" y="-107" type="line"/>
      <point x="341" y="-21" type="line"/>
      <point x="193" y="-21" type="line"/>
      <point x="272" y="67" type="line" smooth="yes"/>
      <point x="314" y="114" smooth="yes"/>
      <point x="333" y="149" smooth="yes"/>
      <point x="333" y="186" type="curve" smooth="yes"/>
      <point x="333" y="261" smooth="yes"/>
      <point x="281" y="307" smooth="yes"/>
      <point x="194" y="307" type="curve" smooth="yes"/>
      <point x="95" y="307"/>
      <point x="46" y="269"/>
      <point x="39" y="186" type="curve"/>
      <point x="137" y="175" type="line"/>
      <point x="138" y="206" smooth="yes"/>
      <point x="151" y="219" smooth="yes"/>
      <point x="181" y="219" type="curve" smooth="yes"/>
      <point x="206" y="219" smooth="yes"/>
      <point x="220" y="206" smooth="yes"/>
      <point x="220" y="184" type="curve" smooth="yes"/>
      <point x="220" y="160" smooth="yes"/>
      <point x="207" y="137" smooth="yes"/>
      <point x="175" y="103" type="curve" smooth="yes"/>
      <point x="38" y="-40" type="line"/>
    </contour>
  </outline>
</glyph>
<glyph name="threeinferior" format="1">
  <advance width="387"/>
  <unicode hex="2083"/>
  <outline>
    <contour>
      <point x="196" y="-115" type="curve" name="hr00"/>
      <point x="281" y="-115" smooth="yes"/>
      <point x="348" y="-63" smooth="yes"/>
      <point x="348" y="3" type="curve" smooth="yes"/>
      <point x="348" y="47"/>
      <point x="326" y="77"/>
      <point x="282" y="95" type="curve"/>
      <point x="321" y="111" smooth="yes"/>
      <point x="342" y="141" smooth="yes"/>
      <point x="342" y="181" type="curve" smooth="yes"/>
      <point x="342" y="258" smooth="yes"/>
      <point x="286" y="307" smooth="yes"/>
      <point x="198" y="307" type="curve" smooth="yes"/>
      <point x="95" y="307"/>
      <point x="52" y="273"/>
      <point x="46" y="188" type="curve"/>
      <point x="145" y="176" type="line"/>
      <point x="148" y="204" smooth="yes"/>
      <point x="164" y="219" smooth="yes"/>
      <point x="190" y="219" type="curve" smooth="yes"/>
      <point x="215" y="219" smooth="yes"/>
      <point x="232" y="204" smooth="yes"/>
      <point x="232" y="180" type="curve" smooth="yes"/>
      <point x="232" y="145" smooth="yes"/>
      <point x="208" y="127" smooth="yes"/>
      <point x="162" y="127" type="curve" smooth="yes"/>
      <point x="152" y="127" type="line"/>
      <point x="152" y="60" type="line"/>
      <point x="161" y="60" type="line" smooth="yes"/>
      <point x="209" y="60" smooth="yes"/>
      <point x="235" y="43" smooth="yes"/>
      <point x="235" y="12" type="curve" smooth="yes"/>
      <point x="235" y="-16" smooth="yes"/>
      <point x="218" y="-30" smooth="yes"/>
      <point x="186" y="-30" type="curve" smooth="yes"/>
      <point x="154" y="-30"/>
      <point x="137" y="-15"/>
      <point x="136" y="17" type="curve"/>
      <point x="38" y="5" type="line"/>
      <point x="44" y="-80" smooth="yes"/>
      <point x="89" y="-115" smooth="yes"/>
    </contour>
  </outline>
</glyph>
<glyph name="fourinferior" format="1">
  <advance width="387"/>
  <unicode hex="2084"/>
  <outline>
    <contour>
      <point x="309" y="-107" type="line" name="hr00"/>
      <point x="309" y="-38" type="line"/>
      <point x="342" y="-38" type="line"/>
      <point x="342" y="48" type="line"/>
      <point x="309" y="48" type="line"/>
      <point x="309" y="298" type="line"/>
      <point x="142" y="298" type="line"/>
      <point x="11" y="40" type="line"/>
      <point x="11" y="-38" type="line"/>
      <point x="204" y="-38" type="line"/>
      <point x="204" y="-107" type="line"/>
    </contour>
    <contour>
      <point x="121" y="48" type="line"/>
      <point x="204" y="215" type="line"/>
      <point x="204" y="48" type="line"/>
    </contour>
  </outline>
</glyph>
<glyph name="fiveinferior" format="1">
  <advance width="387"/>
  <unicode hex="2085"/>
  <outline>
    <contour>
      <point x="194" y="-115" type="curve" name="hr00"/>
      <point x="300" y="-115" smooth="yes"/>
      <point x="354" y="-72" smooth="yes"/>
      <point x="354" y="12" type="curve" smooth="yes"/>
      <point x="354" y="107" smooth="yes"/>
      <point x="300" y="152" smooth="yes"/>
      <point x="185" y="152" type="curve" smooth="yes"/>
      <point x="163" y="152" type="line"/>
      <point x="167" y="211" type="line"/>
      <point x="324" y="211" type="line"/>
      <point x="324" y="298" type="line"/>
      <point x="71" y="298" type="line"/>
      <point x="57" y="80" type="line"/>
      <point x="127" y="80" type="line" smooth="yes"/>
      <point x="205" y="80" smooth="yes"/>
      <point x="238" y="62" smooth="yes"/>
      <point x="238" y="19" type="curve" smooth="yes"/>
      <point x="238" y="-13" smooth="yes"/>
      <point x="223" y="-29" smooth="yes"/>
      <point x="194" y="-29" type="curve" smooth="yes"/>
      <point x="163" y="-29"/>
      <point x="148" y="-10"/>
      <point x="147" y="30" type="curve"/>
      <point x="51" y="18" type="line"/>
      <point x="57" y="-74" smooth="yes"/>
      <point x="100" y="-115" smooth="yes"/>
    </contour>
  </outline>
</glyph>
<glyph name="seveninferior" format="1">
  <advance width="387"/>
  <unicode hex="2087"/>
  <outline>
    <contour>
      <point x="205" y="-107" type="line" name="hr00"/>
      <point x="349" y="226" type="line"/>
      <point x="349" y="298" type="line"/>
      <point x="48" y="298" type="line"/>
      <point x="48" y="211" type="line"/>
      <point x="225" y="211" type="line"/>
      <point x="82" y="-107" type="line"/>
    </contour>
  </outline>
</glyph>
<glyph name="eightinferior" format="1">
  <advance width="387"/>
  <unicode hex="2088"/>
  <outline>
    <contour>
      <point x="194" y="-115" type="curve" name="hr00"/>
      <point x="289" y="-115" smooth="yes"/>
      <point x="355" y="-68" smooth="yes"/>
      <point x="355" y="0" type="curve" smooth="yes"/>
      <point x="355" y="45"/>
      <point x="339" y="76"/>
      <point x="306" y="98" type="curve"/>
      <point x="335" y="119" smooth="yes"/>
      <point x="350" y="149" smooth="yes"/>
      <point x="350" y="189" type="curve" smooth="yes"/>
      <point x="350" y="262" smooth="yes"/>
      <point x="290" y="307" smooth="yes"/>
      <point x="194" y="307" type="curve" smooth="yes"/>
      <point x="97" y="307" smooth="yes"/>
      <point x="36" y="261" smooth="yes"/>
      <point x="36" y="189" type="curve" smooth="yes"/>
      <point x="36" y="145"/>
      <point x="50" y="114"/>
      <point x="81" y="94" type="curve"/>
      <point x="47" y="72" smooth="yes"/>
      <point x="31" y="42" smooth="yes"/>
      <point x="31" y="0" type="curve" smooth="yes"/>
      <point x="31" y="-67" smooth="yes"/>
      <point x="98" y="-115" smooth="yes"/>
    </contour>
    <contour>
      <point x="215" y="128" type="curve"/>
      <point x="192" y="132" type="line" smooth="yes"/>
      <point x="162" y="137" smooth="yes"/>
      <point x="151" y="149" smooth="yes"/>
      <point x="151" y="177" type="curve" smooth="yes"/>
      <point x="151" y="209" smooth="yes"/>
      <point x="165" y="225" smooth="yes"/>
      <point x="194" y="225" type="curve" smooth="yes"/>
      <point x="221" y="225" smooth="yes"/>
      <point x="235" y="208" smooth="yes"/>
      <point x="235" y="177" type="curve" smooth="yes"/>
      <point x="235" y="153"/>
      <point x="228" y="136"/>
    </contour>
    <contour>
      <point x="193" y="-33" type="curve"/>
      <point x="162" y="-33" smooth="yes"/>
      <point x="146" y="-20" smooth="yes"/>
      <point x="146" y="5" type="curve" smooth="yes"/>
      <point x="146" y="34"/>
      <point x="153" y="48"/>
      <point x="177" y="63" type="curve"/>
      <point x="201" y="59" type="line" smooth="yes"/>
      <point x="229" y="54" smooth="yes"/>
      <point x="240" y="39" smooth="yes"/>
      <point x="240" y="5" type="curve" smooth="yes"/>
      <point x="240" y="-20" smooth="yes"/>
      <point x="224" y="-33" smooth="yes"/>
    </contour>
  </outline>
</glyph>
<glyph name="nineinferior" format="1">
  <advance width="389"/>
  <unicode hex="2089"/>
  <outline>
    <contour>
      <point x="185" y="-115" type="curve" name="hr00"/>
      <point x="311" y="-115" smooth="yes"/>
      <point x="354" y="-55" smooth="yes"/>
      <point x="354" y="121" type="curve" smooth="yes"/>
      <point x="354" y="247" smooth="yes"/>
      <point x="303" y="307" smooth="yes"/>
      <point x="195" y="307" type="curve" smooth="yes"/>
      <point x="94" y="307" smooth="yes"/>
      <point x="29" y="253" smooth="yes"/>
      <point x="29" y="170" type="curve" smooth="yes"/>
      <point x="29" y="88" smooth="yes"/>
      <point x="74" y="47" smooth="yes"/>
      <point x="163" y="47" type="curve" smooth="yes"/>
      <point x="204" y="47"/>
      <point x="217" y="48"/>
      <point x="237" y="52" type="curve"/>
      <point x="233" y="-7" smooth="yes"/>
      <point x="219" y="-29" smooth="yes"/>
      <point x="183" y="-29" type="curve" smooth="yes"/>
      <point x="153" y="-29"/>
      <point x="139" y="-15"/>
      <point x="137" y="17" type="curve"/>
      <point x="37" y="7" type="line"/>
      <point x="40" y="-75" smooth="yes"/>
      <point x="88" y="-115" smooth="yes"/>
    </contour>
    <contour>
      <point x="200" y="131" type="curve" smooth="yes"/>
      <point x="165" y="131" smooth="yes"/>
      <point x="146" y="146" smooth="yes"/>
      <point x="146" y="174" type="curve" smooth="yes"/>
      <point x="146" y="205" smooth="yes"/>
      <point x="161" y="220" smooth="yes"/>
      <point x="191" y="220" type="curve" smooth="yes"/>
      <point x="222" y="220"/>
      <point x="235" y="197"/>
      <point x="238" y="135" type="curve"/>
      <point x="226" y="132" smooth="yes"/>
      <point x="213" y="131" smooth="yes"/>
    </contour>
  </outline>
</glyph>
<glyph name="Euro" format="1">
  <advance width="630"/>
  <unicode hex="20AC"/>
  <outline>
    <contour>
      <point x="363" y="-14" type="curve" name="hr00"/>
      <point x="520" y="-14"/>
      <point x="603" y="53"/>
      <point x="606" y="182" type="curve"/>
      <point x="488" y="190" type="line"/>
      <point x="488" y="129" smooth="yes"/>
      <point x="440" y="91" smooth="yes"/>
      <point x="363" y="91" type="curve" smooth="yes"/>
      <point x="287" y="91"/>
      <point x="245" y="141"/>
      <point x="232" y="248" type="curve"/>
      <point x="419" y="248" type="line"/>
      <point x="419" y="329" type="line"/>
      <point x="226" y="329" type="line"/>
      <point x="226" y="401" type="line"/>
      <point x="419" y="401" type="line"/>
      <point x="419" y="482" type="line"/>
      <point x="232" y="482" type="line"/>
      <point x="245" y="588" smooth="yes"/>
      <point x="287" y="638" smooth="yes"/>
      <point x="363" y="638" type="curve" smooth="yes"/>
      <point x="439" y="638"/>
      <point x="487" y="601"/>
      <point x="487" y="542" type="curve"/>
      <point x="605" y="550" type="line"/>
      <point x="602" y="677" smooth="yes"/>
      <point x="519" y="744" smooth="yes"/>
      <point x="364" y="744" type="curve" smooth="yes"/>
      <point x="210" y="744"/>
      <point x="123" y="658"/>
      <point x="99" y="482" type="curve"/>
      <point x="29" y="482" type="line"/>
      <point x="29" y="401" type="line"/>
      <point x="92" y="401" type="line"/>
      <point x="92" y="329" type="line"/>
      <point x="29" y="329" type="line"/>
      <point x="29" y="248" type="line"/>
      <point x="99" y="248" type="line"/>
      <point x="122" y="73" smooth="yes"/>
      <point x="209" y="-14" smooth="yes"/>
    </contour>
  </outline>
</glyph>
<glyph name="trademark" format="1">
  <advance width="1005"/>
  <unicode hex="2122"/>
  <outline>
    <contour>
      <point x="759" y="730" type="line" name="hr00"/>
      <point x="676" y="488" type="line"/>
      <point x="601" y="730" type="line"/>
      <point x="448" y="730" type="line"/>
      <point x="448" y="288" type="line"/>
      <point x="554" y="288" type="line"/>
      <point x="554" y="575" type="line"/>
      <point x="627" y="353" type="line"/>
      <point x="723" y="353" type="line"/>
      <point x="805" y="585" type="line"/>
      <point x="805" y="288" type="line"/>
      <point x="910" y="288" type="line"/>
      <point x="910" y="730" type="line"/>
    </contour>
    <contour>
      <point x="55" y="643" type="line"/>
      <point x="162" y="643" type="line"/>
      <point x="162" y="288" type="line"/>
      <point x="268" y="288" type="line"/>
      <point x="268" y="643" type="line"/>
      <point x="375" y="643" type="line"/>
      <point x="375" y="730" type="line"/>
      <point x="55" y="730" type="line"/>
    </contour>
  </outline>
</glyph>
<glyph name="Omega" format="1">
  <advance width="797"/>
  <unicode hex="2126"/>
  <outline>
    <contour>
      <point x="76" y="0" type="line" name="hr00"/>
      <point x="318" y="0" type="line"/>
      <point x="318" y="227" type="line"/>
      <point x="228" y="252" smooth="yes"/>
      <point x="190" y="310" smooth="yes"/>
      <point x="190" y="422" type="curve" smooth="yes"/>
      <point x="190" y="577" smooth="yes"/>
      <point x="247" y="636" smooth="yes"/>
      <point x="398" y="636" type="curve" smooth="yes"/>
      <point x="550" y="636" smooth="yes"/>
      <point x="607" y="578" smooth="yes"/>
      <point x="607" y="422" type="curve" smooth="yes"/>
      <point x="607" y="310"/>
      <point x="569" y="252"/>
      <point x="479" y="227" type="curve"/>
      <point x="479" y="0" type="line"/>
      <point x="721" y="0" type="line"/>
      <point x="721" y="88" type="line"/>
      <point x="595" y="88" type="line"/>
      <point x="595" y="168" type="line"/>
      <point x="694" y="217" smooth="yes"/>
      <point x="743" y="303" smooth="yes"/>
      <point x="743" y="427" type="curve" smooth="yes"/>
      <point x="743" y="644" smooth="yes"/>
      <point x="633" y="745" smooth="yes"/>
      <point x="398" y="745" type="curve" smooth="yes"/>
      <point x="163" y="745" smooth="yes"/>
      <point x="54" y="644" smooth="yes"/>
      <point x="54" y="427" type="curve" smooth="yes"/>
      <point x="54" y="302"/>
      <point x="103" y="217"/>
      <point x="202" y="168" type="curve"/>
      <point x="202" y="88" type="line"/>
      <point x="76" y="88" type="line"/>
    </contour>
  </outline>
</glyph>
<glyph name="summation" format="1">
  <advance width="596"/>
  <unicode hex="2211"/>
  <outline>
    <contour>
      <point x="39" y="642" type="line" name="hr00"/>
      <point x="277" y="271" type="line"/>
      <point x="39" y="-86" type="line"/>
      <point x="39" y="-173" type="line"/>
      <point x="568" y="-173" type="line"/>
      <point x="568" y="-86" type="line"/>
      <point x="184" y="-86" type="line"/>
      <point x="422" y="271" type="line"/>
      <point x="179" y="642" type="line"/>
      <point x="568" y="642" type="line"/>
      <point x="568" y="730" type="line"/>
      <point x="39" y="730" type="line"/>
    </contour>
  </outline>
</glyph>
<glyph name="integral" format="1">
  <advance width="476"/>
  <unicode hex="222B"/>
  <outline>
    <contour>
      <point x="99" y="-261" type="curve" name="hr00"/>
      <point x="243" y="-261" smooth="yes"/>
      <point x="310" y="-189" smooth="yes"/>
      <point x="310" y="-33" type="curve" smooth="yes"/>
      <point x="310" y="515" type="line" smooth="yes"/>
      <point x="310" y="597" smooth="yes"/>
      <point x="341" y="638" smooth="yes"/>
      <point x="403" y="638" type="curve" smooth="yes"/>
      <point x="433" y="638"/>
      <point x="463" y="629"/>
      <point x="489" y="613" type="curve"/>
      <point x="528" y="707" type="line"/>
      <point x="490" y="731" smooth="yes"/>
      <point x="440" y="744" smooth="yes"/>
      <point x="386" y="744" type="curve" smooth="yes"/>
      <point x="241" y="744" smooth="yes"/>
      <point x="174" y="671" smooth="yes"/>
      <point x="174" y="515" type="curve" smooth="yes"/>
      <point x="174" y="-33" type="line" smooth="yes"/>
      <point x="174" y="-114" smooth="yes"/>
      <point x="144" y="-155" smooth="yes"/>
      <point x="83" y="-155" type="curve" smooth="yes"/>
      <point x="50" y="-155"/>
      <point x="20" y="-146"/>
      <point x="-4" y="-130" type="curve"/>
      <point x="-43" y="-224" type="line"/>
      <point x="-3" y="-248" smooth="yes"/>
      <point x="45" y="-261" smooth="yes"/>
    </contour>
  </outline>
</glyph>
<glyph name="approxequal" format="1">
  <advance width="580"/>
  <unicode hex="2248"/>
  <outline>
    <contour>
      <point x="86" y="372" type="line"/>
      <point x="113" y="356" smooth="yes"/>
      <point x="148" y="350" smooth="yes"/>
      <point x="176" y="350" type="curve" smooth="yes"/>
      <point x="251" y="350" smooth="yes"/>
      <point x="328" y="393" smooth="yes"/>
      <point x="404" y="393" type="curve" smooth="yes" name="hr01"/>
      <point x="432" y="393"/>
      <point x="467" y="387"/>
      <point x="494" y="372" type="curve"/>
      <point x="494" y="464" type="line"/>
      <point x="467" y="478" smooth="yes"/>
      <point x="431" y="483" smooth="yes"/>
      <point x="404" y="483" type="curve" smooth="yes"/>
      <point x="328" y="483" smooth="yes"/>
      <point x="251" y="440" smooth="yes"/>
      <point x="176" y="440" type="curve" smooth="yes" name="hr02"/>
      <point x="148" y="440"/>
      <point x="113" y="445"/>
      <point x="86" y="464" type="curve"/>
    </contour>
    <contour>
      <point x="86" y="172" type="line"/>
      <point x="113" y="156" smooth="yes"/>
      <point x="148" y="150" smooth="yes"/>
      <point x="176" y="150" type="curve" smooth="yes"/>
      <point x="251" y="150" smooth="yes"/>
      <point x="328" y="193" smooth="yes"/>
      <point x="404" y="193" type="curve" smooth="yes" name="hr03"/>
      <point x="432" y="193"/>
      <point x="467" y="187"/>
      <point x="494" y="172" type="curve"/>
      <point x="494" y="264" type="line"/>
      <point x="467" y="278" smooth="yes"/>
      <point x="431" y="283" smooth="yes"/>
      <point x="404" y="283" type="curve" smooth="yes"/>
      <point x="328" y="283" smooth="yes"/>
      <point x="251" y="240" smooth="yes"/>
      <point x="176" y="240" type="curve" smooth="yes" name="hr04"/>
      <point x="148" y="240"/>
      <point x="113" y="245"/>
      <point x="86" y="264" type="curve"/>
    </contour>
  </outline>
</glyph>
<glyph name="apple" format="1">
  <advance width="907"/>
  <unicode hex="F8FF"/>
  <outline>
    <contour>
      <point x="548" y="-89" type="curve" smooth="yes"/>
      <point x="551" y="-88" smooth="yes"/>
      <point x="555" y="-88" smooth="yes"/>
      <point x="558" y="-88" type="curve" smooth="yes"/>
      <point x="566" y="-88" smooth="yes"/>
      <point x="573" y="-89" smooth="yes"/>
      <point x="581" y="-89" type="curve" smooth="yes"/>
      <point x="607" y="-89" smooth="yes"/>
      <point x="609" y="-70" smooth="yes"/>
      <point x="626" y="-60" type="curve" smooth="yes"/>
      <point x="641" y="-52" smooth="yes"/>
      <point x="662" y="-51" smooth="yes"/>
      <point x="675" y="-42" type="curve" smooth="yes"/>
      <point x="688" y="-33" smooth="yes"/>
      <point x="693" y="-11" smooth="yes"/>
      <point x="705" y="1" type="curve" smooth="yes"/>
      <point x="715" y="11" smooth="yes"/>
      <point x="731" y="12" smooth="yes"/>
      <point x="740" y="23" type="curve" smooth="yes"/>
      <point x="751" y="36" smooth="yes"/>
      <point x="750" y="60" smooth="yes"/>
      <point x="758" y="74" type="curve" smooth="yes"/>
      <point x="768" y="91" smooth="yes"/>
      <point x="792" y="92" smooth="yes"/>
      <point x="792" y="120" type="curve" smooth="yes"/>
      <point x="792" y="130" smooth="yes"/>
      <point x="790" y="141" smooth="yes"/>
      <point x="790" y="152" type="curve" smooth="yes"/>
      <point x="790" y="177"/>
      <point x="812" y="180"/>
      <point x="815" y="200" type="curve"/>
      <point x="815" y="214" smooth="yes"/>
      <point x="804" y="229" smooth="yes"/>
      <point x="804" y="244" type="curve" smooth="yes" name="hr01"/>
      <point x="804" y="257" smooth="yes"/>
      <point x="815" y="269" smooth="yes"/>
      <point x="815" y="283" type="curve" smooth="yes"/>
      <point x="815" y="305" smooth="yes"/>
      <point x="791" y="319" smooth="yes"/>
      <point x="791" y="344" type="curve" smooth="yes"/>
      <point x="791" y="352" smooth="yes"/>
      <point x="792" y="360" smooth="yes"/>
      <point x="792" y="369" type="curve" smooth="yes" name="hr02"/>
      <point x="792" y="397" smooth="yes"/>
      <point x="767" y="400" smooth="yes"/>
      <point x="756" y="418" type="curve" smooth="yes"/>
      <point x="750" y="428" smooth="yes"/>
      <point x="755" y="450" smooth="yes"/>
      <point x="749" y="460" type="curve" smooth="yes"/>
      <point x="738" y="479" smooth="yes"/>
      <point x="712" y="483" smooth="yes"/>
      <point x="698" y="496" type="curve" smooth="yes"/>
      <point x="686" y="508" smooth="yes"/>
      <point x="688" y="526" smooth="yes"/>
      <point x="675" y="535" type="curve" smooth="yes"/>
      <point x="661" y="545" smooth="yes"/>
      <point x="645" y="542" smooth="yes"/>
      <point x="630" y="550" type="curve" smooth="yes"/>
      <point x="611" y="560" smooth="yes"/>
      <point x="609" y="586" smooth="yes"/>
      <point x="582" y="586" type="curve" smooth="yes"/>
      <point x="572" y="586" smooth="yes"/>
      <point x="562" y="583" smooth="yes"/>
      <point x="554" y="583" type="curve" smooth="yes" name="hr03"/>
      <point x="530" y="583" smooth="yes"/>
      <point x="523" y="608" smooth="yes"/>
      <point x="497" y="608" type="curve" smooth="yes" name="hr04"/>
      <point x="483" y="608" smooth="yes"/>
      <point x="466" y="596" smooth="yes"/>
      <point x="452" y="596" type="curve" smooth="yes"/>
      <point x="439" y="596" smooth="yes"/>
      <point x="421" y="608" smooth="yes"/>
      <point x="408" y="608" type="curve" smooth="yes"/>
      <point x="386" y="608" smooth="yes"/>
      <point x="378" y="585" smooth="yes"/>
      <point x="353" y="585" type="curve" smooth="yes" name="hr05"/>
      <point x="344" y="585" smooth="yes"/>
      <point x="335" y="587" smooth="yes"/>
      <point x="327" y="587" type="curve" smooth="yes"/>
      <point x="302" y="586" smooth="yes"/>
      <point x="295" y="558" smooth="yes"/>
      <point x="278" y="549" type="curve" smooth="yes"/>
      <point x="262" y="541" smooth="yes"/>
      <point x="240" y="543" smooth="yes"/>
      <point x="227" y="532" type="curve" smooth="yes"/>
      <point x="216" y="522" smooth="yes"/>
      <point x="212" y="501" smooth="yes"/>
      <point x="202" y="491" type="curve" smooth="yes"/>
      <point x="191" y="480" smooth="yes"/>
      <point x="170" y="480" smooth="yes"/>
      <point x="162" y="467" type="curve" smooth="yes"/>
      <point x="155" y="456" smooth="yes"/>
      <point x="158" y="435" smooth="yes"/>
      <point x="151" y="424" type="curve" smooth="yes"/>
      <point x="141" y="407" smooth="yes"/>
      <point x="116" y="401" smooth="yes"/>
      <point x="116" y="376" type="curve" smooth="yes"/>
      <point x="116" y="368" smooth="yes"/>
      <point x="117" y="359" smooth="yes"/>
      <point x="117" y="351" type="curve" smooth="yes"/>
      <point x="117" y="332" smooth="yes"/>
      <point x="92" y="311" smooth="yes"/>
      <point x="92" y="290" type="curve" smooth="yes" name="hr06"/>
      <point x="92" y="275" smooth="yes"/>
      <point x="104" y="265" smooth="yes"/>
      <point x="104" y="248" type="curve" smooth="yes" name="hr07"/>
      <point x="104" y="233" smooth="yes"/>
      <point x="92" y="218" smooth="yes"/>
      <point x="92" y="204" type="curve" smooth="yes" name="hr08"/>
      <point x="92" y="183" smooth="yes"/>
      <point x="117" y="168" smooth="yes"/>
      <point x="117" y="149" type="curve" smooth="yes"/>
      <point x="117" y="141" smooth="yes"/>
      <point x="114" y="133" smooth="yes"/>
      <point x="114" y="124" type="curve" smooth="yes"/>
      <point x="114" y="98" smooth="yes"/>
      <point x="140" y="87" smooth="yes"/>
      <point x="148" y="75" type="curve" smooth="yes"/>
      <point x="159" y="57" smooth="yes"/>
      <point x="152" y="46" smooth="yes"/>
      <point x="163" y="28" type="curve" smooth="yes"/>
      <point x="173" y="12" smooth="yes"/>
      <point x="189" y="15" smooth="yes"/>
      <point x="202" y="4" type="curve" smooth="yes"/>
      <point x="215" y="-7" smooth="yes"/>
      <point x="214" y="-31" smooth="yes"/>
      <point x="232" y="-42" type="curve" smooth="yes"/>
      <point x="248" y="-52" smooth="yes"/>
      <point x="255" y="-43" smooth="yes"/>
      <point x="278" y="-55" type="curve" smooth="yes"/>
      <point x="291" y="-62" smooth="yes"/>
      <point x="303" y="-91" smooth="yes"/>
      <point x="329" y="-91" type="curve" smooth="yes"/>
      <point x="336" y="-91" smooth="yes"/>
      <point x="345" y="-89" smooth="yes"/>
      <point x="353" y="-89" type="curve" smooth="yes"/>
      <point x="377" y="-89" smooth="yes"/>
      <point x="388" y="-114" smooth="yes"/>
      <point x="408" y="-114" type="curve" smooth="yes" name="hr09"/>
      <point x="423" y="-114" smooth="yes"/>
      <point x="438" y="-102" smooth="yes"/>
      <point x="454" y="-102" type="curve" smooth="yes" name="hr10"/>
      <point x="469" y="-102" smooth="yes"/>
      <point x="485" y="-112" smooth="yes"/>
      <point x="500" y="-112" type="curve" smooth="yes"/>
      <point x="517" y="-112" smooth="yes"/>
      <point x="530" y="-94" smooth="yes"/>
    </contour>
    <contour>
      <point x="522" y="3" type="curve" smooth="yes"/>
      <point x="509" y="0" smooth="yes"/>
      <point x="499" y="-13" smooth="yes"/>
      <point x="487" y="-13" type="curve" smooth="yes" name="hr12"/>
      <point x="476" y="-13" smooth="yes"/>
      <point x="465" y="-6" smooth="yes"/>
      <point x="454" y="-6" type="curve" smooth="yes"/>
      <point x="442" y="-6"/>
      <point x="430" y="-15"/>
      <point x="418" y="-15" type="curve"/>
      <point x="404" y="-13" smooth="yes"/>
      <point x="397" y="3" smooth="yes"/>
      <point x="378" y="3" type="curve" smooth="yes" name="hr13"/>
      <point x="373" y="3" smooth="yes"/>
      <point x="368" y="2" smooth="yes"/>
      <point x="363" y="2" type="curve" smooth="yes"/>
      <point x="344" y="2" smooth="yes"/>
      <point x="337" y="23" smooth="yes"/>
      <point x="326" y="28" type="curve" smooth="yes"/>
      <point x="309" y="37" smooth="yes"/>
      <point x="304" y="29" smooth="yes"/>
      <point x="293" y="37" type="curve" smooth="yes"/>
      <point x="280" y="45" smooth="yes"/>
      <point x="281" y="63" smooth="yes"/>
      <point x="271" y="71" type="curve" smooth="yes"/>
      <point x="262" y="79" smooth="yes"/>
      <point x="250" y="77" smooth="yes"/>
      <point x="243" y="88" type="curve" smooth="yes"/>
      <point x="235" y="101" smooth="yes"/>
      <point x="240" y="110" smooth="yes"/>
      <point x="232" y="123" type="curve" smooth="yes"/>
      <point x="227" y="132" smooth="yes"/>
      <point x="207" y="139" smooth="yes"/>
      <point x="207" y="158" type="curve" smooth="yes"/>
      <point x="207" y="163" smooth="yes"/>
      <point x="209" y="169" smooth="yes"/>
      <point x="209" y="174" type="curve" smooth="yes"/>
      <point x="209" y="189" smooth="yes"/>
      <point x="192" y="200" smooth="yes"/>
      <point x="192" y="215" type="curve" smooth="yes" name="hr14"/>
      <point x="192" y="226" smooth="yes"/>
      <point x="200" y="237" smooth="yes"/>
      <point x="200" y="248" type="curve" smooth="yes"/>
      <point x="200" y="260" smooth="yes"/>
      <point x="192" y="267" smooth="yes"/>
      <point x="192" y="278" type="curve" smooth="yes"/>
      <point x="192" y="294" smooth="yes"/>
      <point x="209" y="308" smooth="yes"/>
      <point x="209" y="324" type="curve" smooth="yes"/>
      <point x="209" y="329" smooth="yes"/>
      <point x="208" y="335" smooth="yes"/>
      <point x="208" y="340" type="curve" smooth="yes"/>
      <point x="208" y="359" smooth="yes"/>
      <point x="227" y="363" smooth="yes"/>
      <point x="234" y="376" type="curve" smooth="yes"/>
      <point x="239" y="384" smooth="yes"/>
      <point x="237" y="399" smooth="yes"/>
      <point x="242" y="407" type="curve" smooth="yes"/>
      <point x="249" y="416" smooth="yes"/>
      <point x="263" y="416" smooth="yes"/>
      <point x="271" y="424" type="curve" smooth="yes"/>
      <point x="279" y="432" smooth="yes"/>
      <point x="281" y="447" smooth="yes"/>
      <point x="290" y="454" type="curve" smooth="yes"/>
      <point x="299" y="462" smooth="yes"/>
      <point x="315" y="460" smooth="yes"/>
      <point x="326" y="466" type="curve" smooth="yes"/>
      <point x="339" y="472" smooth="yes"/>
      <point x="343" y="493" smooth="yes"/>
      <point x="362" y="493" type="curve" smooth="yes"/>
      <point x="368" y="493" smooth="yes"/>
      <point x="373" y="492" smooth="yes"/>
      <point x="379" y="492" type="curve" smooth="yes"/>
      <point x="398" y="492" smooth="yes"/>
      <point x="405" y="509" smooth="yes"/>
      <point x="421" y="509" type="curve" smooth="yes" name="hr15"/>
      <point x="431" y="509" smooth="yes"/>
      <point x="443" y="500" smooth="yes"/>
      <point x="453" y="500" type="curve" smooth="yes"/>
      <point x="463" y="500" smooth="yes"/>
      <point x="475" y="509" smooth="yes"/>
      <point x="486" y="509" type="curve" smooth="yes"/>
      <point x="505" y="509" smooth="yes"/>
      <point x="508" y="491" smooth="yes"/>
      <point x="527" y="491" type="curve" smooth="yes"/>
      <point x="533" y="491" smooth="yes"/>
      <point x="540" y="493" smooth="yes"/>
      <point x="547" y="493" type="curve" smooth="yes" name="hr16"/>
      <point x="567" y="493" smooth="yes"/>
      <point x="568" y="474" smooth="yes"/>
      <point x="581" y="467" type="curve" smooth="yes"/>
      <point x="593" y="460" smooth="yes"/>
      <point x="604" y="464" smooth="yes"/>
      <point x="614" y="456" type="curve" smooth="yes"/>
      <point x="624" y="449" smooth="yes"/>
      <point x="622" y="436" smooth="yes"/>
      <point x="631" y="428" type="curve" smooth="yes"/>
      <point x="641" y="418" smooth="yes"/>
      <point x="660" y="415" smooth="yes"/>
      <point x="668" y="402" type="curve" smooth="yes"/>
      <point x="672" y="394" smooth="yes"/>
      <point x="669" y="379" smooth="yes"/>
      <point x="673" y="371" type="curve" smooth="yes"/>
      <point x="681" y="357" smooth="yes"/>
      <point x="699" y="356" smooth="yes"/>
      <point x="699" y="335" type="curve" smooth="yes"/>
      <point x="699" y="329" smooth="yes"/>
      <point x="698" y="323" smooth="yes"/>
      <point x="698" y="318" type="curve" smooth="yes"/>
      <point x="698" y="300" smooth="yes"/>
      <point x="716" y="289" smooth="yes"/>
      <point x="716" y="273" type="curve" smooth="yes" name="hr17"/>
      <point x="716" y="264" smooth="yes"/>
      <point x="708" y="254" smooth="yes"/>
      <point x="708" y="245" type="curve" smooth="yes"/>
      <point x="708" y="234"/>
      <point x="716" y="223"/>
      <point x="716" y="213" type="curve"/>
      <point x="713" y="199" smooth="yes"/>
      <point x="698" y="196" smooth="yes"/>
      <point x="698" y="177" type="curve" smooth="yes"/>
      <point x="698" y="171" smooth="yes"/>
      <point x="699" y="164" smooth="yes"/>
      <point x="699" y="157" type="curve" smooth="yes" name="hr18"/>
      <point x="699" y="133" smooth="yes"/>
      <point x="683" y="136" smooth="yes"/>
      <point x="675" y="122" type="curve" smooth="yes"/>
      <point x="669" y="111" smooth="yes"/>
      <point x="669" y="94" smooth="yes"/>
      <point x="662" y="84" type="curve" smooth="yes"/>
      <point x="655" y="76" smooth="yes"/>
      <point x="643" y="76" smooth="yes"/>
      <point x="636" y="68" type="curve" smooth="yes"/>
      <point x="628" y="60" smooth="yes"/>
      <point x="624" y="45" smooth="yes"/>
      <point x="614" y="38" type="curve" smooth="yes"/>
      <point x="605" y="31"/>
      <point x="589" y="30"/>
      <point x="579" y="24" type="curve"/>
      <point x="567" y="19" smooth="yes"/>
      <point x="566" y="3" smooth="yes"/>
      <point x="546" y="3" type="curve" smooth="yes"/>
      <point x="541" y="3" smooth="yes"/>
      <point x="536" y="4" smooth="yes"/>
      <point x="531" y="4" type="curve" smooth="yes"/>
      <point x="528" y="4" smooth="yes"/>
      <point x="525" y="4" smooth="yes"/>
    </contour>
    <contour>
      <point x="454" y="417" type="curve" smooth="yes"/>
      <point x="360" y="417" smooth="yes"/>
      <point x="284" y="341" smooth="yes"/>
      <point x="284" y="247" type="curve" smooth="yes"/>
      <point x="284" y="153" smooth="yes"/>
      <point x="360" y="77" smooth="yes"/>
      <point x="454" y="77" type="curve" smooth="yes"/>
      <point x="548" y="77" smooth="yes"/>
      <point x="624" y="153" smooth="yes"/>
      <point x="624" y="247" type="curve" smooth="yes"/>
      <point x="624" y="341" smooth="yes"/>
      <point x="548" y="417" smooth="yes"/>
    </contour>
    <contour>
      <point x="497" y="292" type="line"/>
      <point x="497" y="117" type="line"/>
      <point x="412" y="117" type="line"/>
      <point x="412" y="292" type="line"/>
      <point x="358" y="292" type="line" name="hr19"/>
      <point x="358" y="360" type="line"/>
      <point x="549" y="360" type="line" name="hr20"/>
      <point x="549" y="292" type="line"/>
    </contour>
  </outline>
</glyph>
<glyph name="breve.case" format="1">
  <advance width="409"/>
  <outline>
    <contour>
      <point x="204" y="796" type="curve" name="hr00"/>
      <point x="301" y="796"/>
      <point x="342" y="841"/>
      <point x="342" y="947" type="curve"/>
      <point x="268" y="947" type="line"/>
      <point x="268" y="896" smooth="yes"/>
      <point x="250" y="877" smooth="yes"/>
      <point x="204" y="877" type="curve" smooth="yes"/>
      <point x="158" y="877"/>
      <point x="140" y="896"/>
      <point x="140" y="947" type="curve"/>
      <point x="67" y="947" type="line"/>
      <point x="67" y="841" smooth="yes"/>
      <point x="108" y="796" smooth="yes"/>
    </contour>
  </outline>
</glyph>
<glyph name="cedilla.alt" format="1">
  <advance width="281"/>
  <outline>
    <contour>
      <point x="138" y="-252" type="curve" name="hr00"/>
      <point x="216" y="-252" smooth="yes"/>
      <point x="263" y="-212" smooth="yes"/>
      <point x="263" y="-146" type="curve" smooth="yes"/>
      <point x="263" y="-92"/>
      <point x="222" y="-56"/>
      <point x="149" y="-47" type="curve"/>
      <point x="163" y="15" type="line"/>
      <point x="102" y="15" type="line"/>
      <point x="76" y="-88" type="line"/>
      <point x="141" y="-98" smooth="yes"/>
      <point x="167" y="-114" smooth="yes"/>
      <point x="167" y="-146" type="curve" smooth="yes"/>
      <point x="167" y="-167" smooth="yes"/>
      <point x="157" y="-179" smooth="yes"/>
      <point x="138" y="-179" type="curve" smooth="yes"/>
      <point x="121" y="-179"/>
      <point x="113" y="-166"/>
      <point x="113" y="-140" type="curve"/>
      <point x="30" y="-149" type="line"/>
      <point x="34" y="-218" smooth="yes"/>
      <point x="69" y="-252" smooth="yes"/>
    </contour>
  </outline>
</glyph>
<glyph name="circumflex.case" format="1">
  <advance width="385"/>
  <outline>
    <contour>
      <point x="82" y="786" type="line" name="hr00"/>
      <point x="192" y="870" type="line"/>
      <point x="303" y="786" type="line"/>
      <point x="351" y="834" type="line"/>
      <point x="223" y="981" type="line"/>
      <point x="162" y="981" type="line"/>
      <point x="34" y="834" type="line"/>
    </contour>
  </outline>
</glyph>
<glyph name="dieresis.case" format="1">
  <advance width="372"/>
  <outline>
    <contour>
      <point x="76" y="803" type="curve" name="hr00"/>
      <point x="126" y="803" smooth="yes"/>
      <point x="145" y="824" smooth="yes"/>
      <point x="145" y="877" type="curve" smooth="yes"/>
      <point x="145" y="929" smooth="yes"/>
      <point x="124" y="952" smooth="yes"/>
      <point x="76" y="952" type="curve" smooth="yes"/>
      <point x="29" y="952" smooth="yes"/>
      <point x="9" y="929" smooth="yes"/>
      <point x="9" y="877" type="curve" smooth="yes"/>
      <point x="9" y="824" smooth="yes"/>
      <point x="28" y="803" smooth="yes"/>
    </contour>
    <contour>
      <point x="294" y="803" type="curve"/>
      <point x="344" y="803" smooth="yes"/>
      <point x="363" y="824" smooth="yes"/>
      <point x="363" y="877" type="curve" smooth="yes"/>
      <point x="363" y="929" smooth="yes"/>
      <point x="342" y="952" smooth="yes"/>
      <point x="294" y="952" type="curve" smooth="yes"/>
      <point x="247" y="952" smooth="yes"/>
      <point x="227" y="929" smooth="yes"/>
      <point x="227" y="877" type="curve" smooth="yes"/>
      <point x="227" y="824" smooth="yes"/>
      <point x="246" y="803" smooth="yes"/>
    </contour>
  </outline>
</glyph>
<glyph name="dotaccent.case" format="1">
  <advance width="258"/>
  <outline>
    <contour>
      <point x="136" y="796" type="curve" name="hr00"/>
      <point x="190" y="796" smooth="yes"/>
      <point x="213" y="823" smooth="yes"/>
      <point x="213" y="885" type="curve" smooth="yes"/>
      <point x="213" y="948" smooth="yes"/>
      <point x="190" y="975" smooth="yes"/>
      <point x="136" y="975" type="curve" smooth="yes"/>
      <point x="83" y="975" smooth="yes"/>
      <point x="61" y="948" smooth="yes"/>
      <point x="61" y="885" type="curve" smooth="yes"/>
      <point x="61" y="823" smooth="yes"/>
      <point x="84" y="796" smooth="yes"/>
    </contour>
  </outline>
</glyph>
<glyph name="grave.case" format="1">
  <advance width="298"/>
  <outline>
    <contour>
      <point x="271" y="852" type="line" name="hr00"/>
      <point x="76" y="985" type="line"/>
      <point x="16" y="889" type="line"/>
      <point x="226" y="780" type="line"/>
    </contour>
  </outline>
</glyph>
<glyph name="ring.case" format="1">
  <advance width="258"/>
  <outline>
    <contour>
      <point x="127" y="772" type="curve" smooth="yes" name="hr00"/>
      <point x="200" y="772" smooth="yes"/>
      <point x="242" y="813" smooth="yes"/>
      <point x="242" y="884" type="curve" smooth="yes"/>
      <point x="242" y="956" smooth="yes"/>
      <point x="200" y="997" smooth="yes"/>
      <point x="127" y="997" type="curve" smooth="yes"/>
      <point x="56" y="997" smooth="yes"/>
      <point x="16" y="956" smooth="yes"/>
      <point x="16" y="884" type="curve" smooth="yes"/>
      <point x="16" y="813" smooth="yes"/>
      <point x="56" y="772" smooth="yes"/>
    </contour>
    <contour>
      <point x="127" y="836" type="curve" smooth="yes"/>
      <point x="103" y="836" smooth="yes"/>
      <point x="90" y="853" smooth="yes"/>
      <point x="90" y="884" type="curve" smooth="yes"/>
      <point x="90" y="916" smooth="yes"/>
      <point x="103" y="934" smooth="yes"/>
      <point x="127" y="934" type="curve" smooth="yes"/>
      <point x="154" y="934" smooth="yes"/>
      <point x="168" y="916" smooth="yes"/>
      <point x="168" y="884" type="curve" smooth="yes"/>
      <point x="168" y="853" smooth="yes"/>
      <point x="154" y="836" smooth="yes"/>
    </contour>
  </outline>
</glyph>
<glyph name="ringacute" format="1">
  <advance width="258"/>
  <outline>
    <contour>
      <point x="127" y="612" type="curve" smooth="yes" name="hr00"/>
      <point x="200" y="612" smooth="yes"/>
      <point x="242" y="653" smooth="yes"/>
      <point x="242" y="724" type="curve" smooth="yes"/>
      <point x="242" y="730"/>
      <point x="241" y="736"/>
      <point x="240" y="750" type="curve"/>
      <point x="347" y="801" type="line"/>
      <point x="291" y="899" type="line"/>
      <point x="188" y="825" type="line"/>
      <point x="171" y="833" smooth="yes"/>
      <point x="150" y="837" smooth="yes"/>
      <point x="127" y="837" type="curve" smooth="yes"/>
      <point x="56" y="837" smooth="yes"/>
      <point x="16" y="796" smooth="yes"/>
      <point x="16" y="724" type="curve" smooth="yes"/>
      <point x="16" y="653" smooth="yes"/>
      <point x="56" y="612" smooth="yes"/>
    </contour>
    <contour>
      <point x="127" y="676" type="curve" smooth="yes"/>
      <point x="103" y="676" smooth="yes"/>
      <point x="90" y="693" smooth="yes"/>
      <point x="90" y="724" type="curve" smooth="yes"/>
      <point x="90" y="756" smooth="yes"/>
      <point x="103" y="774" smooth="yes"/>
      <point x="127" y="774" type="curve" smooth="yes"/>
      <point x="154" y="774" smooth="yes"/>
      <point x="168" y="756" smooth="yes"/>
      <point x="168" y="724" type="curve" smooth="yes"/>
      <point x="168" y="693" smooth="yes"/>
      <point x="154" y="676" smooth="yes"/>
    </contour>
  </outline>
</glyph>
<glyph name="tilde.case" format="1">
  <advance width="394"/>
  <outline>
    <contour>
      <point x="270" y="821" type="curve" smooth="yes"/>
      <point x="315" y="821"/>
      <point x="350" y="850"/>
      <point x="374" y="938" type="curve"/>
      <point x="300" y="962" type="line"/>
      <point x="291" y="932" smooth="yes"/>
      <point x="280" y="918" smooth="yes"/>
      <point x="256" y="918" type="curve" smooth="yes"/>
      <point x="226" y="918" smooth="yes"/>
      <point x="169" y="954" smooth="yes"/>
      <point x="124" y="954" type="curve" smooth="yes" name="hr01"/>
      <point x="79" y="954"/>
      <point x="44" y="925"/>
      <point x="20" y="837" type="curve"/>
      <point x="95" y="813" type="line"/>
      <point x="104" y="843" smooth="yes"/>
      <point x="115" y="857" smooth="yes"/>
      <point x="139" y="857" type="curve" smooth="yes"/>
      <point x="169" y="857" smooth="yes"/>
      <point x="225" y="821" smooth="yes"/>
    </contour>
  </outline>
</glyph>
